<?xml version="1.0" encoding="UTF-8"?>
<svg width="56px" height="56px" viewBox="0 0 56 56" version="1.1" xmlns="http://www.w3.org/2000/svg" xmlns:xlink="http://www.w3.org/1999/xlink">
    <!-- Generator: Sketch 57.1 (83088) - https://sketch.com -->
    <title>icon / font awesome / brands / 500px Copy 166</title>
    <desc>Created with Sketch.</desc>
    <g id="Icons" stroke="none" stroke-width="1" fill="none" fill-rule="evenodd">
        <g id="Color-" transform="translate(-499.000000, -359.000000)" fill="#FFFFFF">
            <g id="icon-/-font-awesome-/-brands-/-google" transform="translate(499.000000, 359.000000)">
                <path d="M55.2812503,28.2550783 C55.2812503,44.0080081 44.3042972,55.2187503 28.0937502,55.2187503 C12.5515626,55.2187503 -6.21724894e-15,42.883594 -6.21724894e-15,27.6093752 C-6.21724894e-15,12.3351563 12.5515626,0 28.0937502,0 C35.6609377,0 42.027344,2.72753908 46.9324222,7.22519536 L39.2859377,14.4503907 C29.2832033,4.96523441 10.6824219,12.0902345 10.6824219,27.6093752 C10.6824219,37.239258 18.5101564,45.0433597 28.0937502,45.0433597 C39.217969,45.0433597 43.386719,37.2058596 44.0437503,33.142383 L28.0937502,33.142383 L28.0937502,23.6460939 L54.8394535,23.6460939 C55.1000003,25.0599611 55.2812503,26.4181642 55.2812503,28.2550783 Z" id="google"></path>
            </g>
        </g>
    </g>
</svg>