<?xml version="1.0" encoding="UTF-8"?>
<svg width="20px" height="20px" viewBox="0 0 20 20" version="1.1" xmlns="http://www.w3.org/2000/svg" xmlns:xlink="http://www.w3.org/1999/xlink">
    <!-- Generator: Sketch 56.3 (81716) - https://sketch.com -->
    <title>clear_circle</title>
    <desc>Created with Sketch.</desc>
    <g id="Icons" stroke="none" stroke-width="1" fill="none" fill-rule="evenodd">
        <g id="The-Icon-of---Actions" transform="translate(-1348.000000, -598.000000)" fill="#000000" fill-rule="nonzero">
            <g id="ico-/-24-/-actions-/-clear_circle" transform="translate(1346.000000, 596.000000)">
                <path d="M12,2 C6.4771525,2 2,6.4771525 2,12 C2,17.5228475 6.4771525,22 12,22 C17.5228475,22 22,17.5228475 22,12 C22,9.3478351 20.9464316,6.80429597 19.0710678,4.92893219 C17.195704,3.0535684 14.6521649,2 12,2 Z M15.09,13.86 C15.1866772,13.9507333 15.2415186,14.0774141 15.2415186,14.21 C15.2415186,14.3425859 15.1866772,14.4692667 15.09,14.56 L14.56,15.09 C14.4692667,15.1866772 14.3425859,15.2415186 14.21,15.2415186 C14.0774141,15.2415186 13.9507333,15.1866772 13.86,15.09 L12,13.24 L10.14,15.09 C10.0492667,15.1866772 9.92258591,15.2415186 9.79,15.2415186 C9.65741409,15.2415186 9.53073333,15.1866772 9.44,15.09 L8.91,14.56 C8.81332277,14.4692667 8.75848135,14.3425859 8.75848135,14.21 C8.75848135,14.0774141 8.81332277,13.9507333 8.91,13.86 L10.76,12 L8.91,10.14 C8.81332277,10.0492667 8.75848135,9.92258591 8.75848135,9.79 C8.75848135,9.65741409 8.81332277,9.53073333 8.91,9.44 L9.44,8.91 C9.53073333,8.81332277 9.65741409,8.75848135 9.79,8.75848135 C9.92258591,8.75848135 10.0492667,8.81332277 10.14,8.91 L12,10.76 L13.86,8.91 C13.9507333,8.81332277 14.0774141,8.75848135 14.21,8.75848135 C14.3425859,8.75848135 14.4692667,8.81332277 14.56,8.91 L15.09,9.44 C15.1866772,9.53073333 15.2415186,9.65741409 15.2415186,9.79 C15.2415186,9.92258591 15.1866772,10.0492667 15.09,10.14 L13.24,12 L15.09,13.86 Z" id="Icon-color"></path>
            </g>
        </g>
    </g>
</svg>