<?xml version="1.0" encoding="UTF-8"?>
<svg width="16px" height="20px" viewBox="0 0 16 20" version="1.1" xmlns="http://www.w3.org/2000/svg" xmlns:xlink="http://www.w3.org/1999/xlink">
    <!-- Generator: Sketch 56.3 (81716) - https://sketch.com -->
    <title>file_text</title>
    <desc>Created with Sketch.</desc>
    <g id="Icons" stroke="none" stroke-width="1" fill="none" fill-rule="evenodd">
        <g id="The-Icon-of---Files" transform="translate(-234.000000, -474.000000)" fill="#FFFFFF" fill-rule="nonzero">
            <g id="ico-/-24-/-files-/-file_text" transform="translate(230.000000, 472.000000)">
                <path d="M3.99999937,19.9999994 C3.99999937,21.1045695 4.8954305,21.9999994 5.99999937,21.9999994 L17.9999994,21.9999994 C19.1045695,21.9999994 19.9999994,21.1045695 19.9999994,19.9999994 L19.9999994,3.99999937 C19.9999994,2.8954305 19.1045695,1.99999937 17.9999994,1.99999937 L10.83,1.99999937 C10.2969554,1.99957762 9.78579638,2.2119606 9.41,2.59 L4.59,7.41 C4.2119606,7.78579638 3.99957762,8.29695542 3.99999937,8.83 L3.99999937,19.9999994 Z M13,17.5 C13,17.7761424 12.7761424,18 12.5,18 L7.5,18 C7.22385763,18 7,17.7761424 7,17.5 L7,16.5 C7,16.2238576 7.22385763,16 7.5,16 L12.5,16 C12.7761424,16 13,16.2238576 13,16.5 L13,17.5 Z M17,13.5 C17,13.7761424 16.7761424,14 16.5,14 L7.5,14 C7.22385763,14 7,13.7761424 7,13.5 L7,12.5 C7,12.2238576 7.22385763,12 7.5,12 L16.5,12 C16.7761424,12 17,12.2238576 17,12.5 L17,13.5 Z M5.82,9 L11,3.82 L11,8 C11,8.55228475 10.5522847,9 10,9 L5.82,9 Z" id="Icon-color"></path>
            </g>
        </g>
    </g>
</svg>