<?xml version="1.0" encoding="UTF-8"?>
<svg width="76px" height="76px" viewBox="0 0 76 76" version="1.1" xmlns="http://www.w3.org/2000/svg" xmlns:xlink="http://www.w3.org/1999/xlink">
    <!-- Generator: Sketch 57.1 (83088) - https://sketch.com -->
    <title>Group 2</title>
    <desc>Created with Sketch.</desc>
    <g id="Icons" stroke="none" stroke-width="1" fill="none" fill-rule="evenodd">
        <g id="Group-2">
            <circle id="Oval" fill="#FFFFFF" cx="38" cy="38" r="38"></circle>
            <path d="M62,22.7352835 C60.2363092,23.5384615 58.3373833,24.0816179 56.3454834,24.3243048 C58.3796443,23.0762008 59.9404825,21.097147 60.6758232,18.7396172 C58.7712625,19.8952691 56.6666667,20.7360058 54.4183835,21.18671 C52.6265188,19.224991 50.0655045,18 47.2312027,18 C41.796443,18 37.3872161,22.5214879 37.3872161,28.0975081 C37.3872161,28.8891296 37.471738,29.6576381 37.6407818,30.3972553 C29.4562423,29.9754424 22.2014439,25.9595522 17.3414334,19.8432647 C16.4933967,21.3398339 16.0088044,23.0762008 16.0088044,24.9252438 C16.0088044,28.4268689 17.7471386,31.5182376 20.3898574,33.3297219 C18.778306,33.2806067 17.2569114,32.8212351 15.9270998,32.0700614 L15.9270998,32.194294 C15.9270998,37.0884796 19.3220637,41.1708198 23.8298996,42.0953413 C23.0044022,42.3322499 22.1338264,42.4507042 21.2350766,42.4507042 C20.6011622,42.4507042 19.9813347,42.3900325 19.3812291,42.2715782 C20.6349709,46.2816901 24.2694136,49.2026002 28.5800317,49.2806067 C25.2104244,51.9906103 20.961789,53.6056338 16.3497095,53.6056338 C15.5552034,53.6056338 14.7691495,53.5594077 14,53.4669556 C18.3585138,56.3271939 23.5368903,58 29.0956154,58 C47.2114809,58 57.1146329,42.6153846 57.1146329,29.2704948 C57.1146329,28.8313471 57.1061807,28.3921993 57.0892763,27.961719 C59.0135587,26.5373781 60.6842754,24.7605634 62,22.7352835" id="Twitter-Copy" fill="#00AAEC"></path>
        </g>
    </g>
</svg>