<?xml version="1.0" encoding="UTF-8"?>
<svg width="18px" height="20px" viewBox="0 0 18 20" version="1.1" xmlns="http://www.w3.org/2000/svg" xmlns:xlink="http://www.w3.org/1999/xlink">
    <!-- Generator: Sketch 56.3 (81716) - https://sketch.com -->
    <title>museum</title>
    <desc>Created with Sketch.</desc>
    <g id="Icons" stroke="none" stroke-width="1" fill="none" fill-rule="evenodd">
        <g id="The-Icon-of---Map-&amp;-places" transform="translate(-233.000000, -721.000000)" fill="#000000" fill-rule="nonzero">
            <g id="ico-/-24-/-map-&amp;-places-/-museum" transform="translate(230.000000, 720.000000)">
                <path d="M4.5,17 L19.5,17 C19.7761424,17 20,16.7761424 20,16.5 L20,14.5 C20,14.2238576 19.7761424,14 19.5,14 L18,14 L18,7 L19.5,7 C19.7761424,7 20,6.77614237 20,6.5 L20,4.67 C19.9979849,4.26629811 19.7534255,3.9034036 19.38,3.75 L13,1.15 C12.7526433,1.04835463 12.4874137,0.997348919 12.22,0.999901716 L11.78,0.999901716 C11.5193119,0.999901716 11.2611365,1.05094709 11.02,1.15 L4.62,3.75 C4.24657449,3.9034036 4.00201515,4.26629811 4,4.67 L4,6.5 C4,6.77614237 4.22385763,7 4.5,7 L6,7 L6,14 L4.5,14 C4.22385763,14 4,14.2238576 4,14.5 L4,16.5 C4,16.7761424 4.22385763,17 4.5,17 Z M13,7 L16,7 L16,14 L13,14 L13,7 Z M8,7 L11,7 L11,14 L8,14 L8,7 Z M20.5,19 L3.5,19 C3.22385763,19 3,19.2238576 3,19.5 L3,20.5 C3,20.7761424 3.22385763,21 3.5,21 L20.5,21 C20.7761424,21 21,20.7761424 21,20.5 L21,19.5 C21,19.2238576 20.7761424,19 20.5,19 Z" id="Icon-color"></path>
            </g>
        </g>
    </g>
</svg>