<?xml version="1.0" encoding="UTF-8"?>
<svg width="12px" height="20px" viewBox="0 0 12 20" version="1.1" xmlns="http://www.w3.org/2000/svg" xmlns:xlink="http://www.w3.org/1999/xlink">
    <!-- Generator: Sketch 56.3 (81716) - https://sketch.com -->
    <title>next_ui</title>
    <desc>Created with Sketch.</desc>
    <g id="Icons" stroke="none" stroke-width="1" fill="none" fill-rule="evenodd">
        <g id="The-Icon-of---Arrows" transform="translate(-236.000000, -846.000000)" fill="#000000" fill-rule="nonzero">
            <g id="ico-/-24-/-arrows-/-next_ui" transform="translate(230.000000, 844.000000)">
                <path d="M6.83,3.92 C6.73534367,3.8261167 6.68210084,3.69831877 6.68210084,3.565 C6.68210084,3.43168123 6.73534367,3.3038833 6.83,3.21 L7.89,2.15 C7.98073333,2.05332277 8.10741409,1.99848135 8.24,1.99848135 C8.37258591,1.99848135 8.49926667,2.05332277 8.59,2.15 L17.78,11.34 C17.9206925,11.4805174 17.9998249,11.6711546 18,11.87 L18,12.13 C17.9998249,12.3288454 17.9206925,12.5194826 17.78,12.66 L8.59,21.85 C8.49926667,21.9466772 8.37258591,22.0015186 8.24,22.0015186 C8.10741409,22.0015186 7.98073333,21.9466772 7.89,21.85 L6.83,20.79 C6.73534367,20.6961167 6.68210084,20.5683188 6.68210084,20.435 C6.68210084,20.3016812 6.73534367,20.1738833 6.83,20.08 L14.91,12 L6.83,3.92 Z" id="Icon-color"></path>
            </g>
        </g>
    </g>
</svg>