<?xml version="1.0" encoding="UTF-8"?>
<svg width="1179px" height="726px" viewBox="0 0 1179 726" version="1.1" xmlns="http://www.w3.org/2000/svg" xmlns:xlink="http://www.w3.org/1999/xlink">
    <!-- Generator: Sketch 56.3 (81716) - https://sketch.com -->
    <title>Group 2</title>
    <desc>Created with Sketch.</desc>
    <defs>
        <linearGradient x1="50.0174705%" y1="100.031191%" x2="50.0174705%" y2="-0.000433130586%" id="linearGradient-1">
            <stop stop-color="#808080" stop-opacity="0.25" offset="0%"></stop>
            <stop stop-color="#808080" stop-opacity="0.12" offset="54%"></stop>
            <stop stop-color="#808080" stop-opacity="0.1" offset="100%"></stop>
        </linearGradient>
        <linearGradient x1="0.0574712644%" y1="50.0069473%" x2="100%" y2="50.0069473%" id="linearGradient-2">
            <stop stop-color="#808080" stop-opacity="0.25" offset="0%"></stop>
            <stop stop-color="#808080" stop-opacity="0.12" offset="54%"></stop>
            <stop stop-color="#808080" stop-opacity="0.1" offset="100%"></stop>
        </linearGradient>
    </defs>
    <g id="Page-1" stroke="none" stroke-width="1" fill="none" fill-rule="evenodd">
        <g id="Group-2">
            <g id="undraw_printing_invoices_5r4r-(1)">
                <path d="M1178.82013,465.31 C1178.84029,484.938595 1176.46608,504.496373 1171.75,523.55 C1170.16333,529.963333 1168.32,536.25 1166.22,542.41 C1163.6471,550.003849 1160.66951,557.454511 1157.3,564.73 C1155.6,568.403333 1153.80333,572.01 1151.91,575.55 C1151.94018,595.678318 1147.79628,615.594228 1139.74,634.04 C1125.17028,667.130695 1099.20063,693.888155 1066.56,709.44 C1046.12442,719.187537 1023.7909,724.309123 1001.15,724.440488 L224.59,724.440488 C190.036634,724.517126 156.079037,715.442905 126.17,698.14 C121.75,695.58 117.443333,692.853333 113.25,689.96 C104.145153,683.670036 95.5910674,676.618017 87.68,668.88 C76.9699149,658.403831 67.5345661,646.699434 59.57,634.01 C40.8579058,604.298062 30.9452431,569.893252 30.98,534.78 C12.03,501.53 0.98,461.7 0.98,418.9 C0.98,364.9 18.54,315.64 47.39,278.35 C53.4046735,270.559332 59.9930109,263.228929 67.1,256.42 C74.112352,249.682199 81.6494455,243.51275 89.64,237.97 C96.0306737,233.527031 102.712358,229.518021 109.64,225.97 C112.53,224.49 115.43,223.11 118.38,221.82 C120.97,220.67 123.59,219.6 126.24,218.59 C129.42,217.376667 132.64,216.266667 135.9,215.26 C139.16,214.253333 142.376667,213.366667 145.55,212.6 C150.216667,211.46 154.963333,210.533333 159.79,209.82 C163.79,209.23 167.79,208.82 171.79,208.5 C174.97,208.273333 178.176667,208.14 181.41,208.1 L183.16,208.1 C186.72,208.1 190.26,208.24 193.77,208.48 C194.14,207.74 194.54,206.99 194.91,206.25 C196.31,203.59 197.76,200.93 199.22,198.32 L199.22,198.25 C199.47,197.8 199.72,197.35 199.98,196.91 C201.16,194.78 202.39,192.67 203.65,190.58 C204.23,189.58 204.8,188.64 205.39,187.69 C205.52,187.46 205.65,187.24 205.8,187.01 C206.4,186.01 207.01,185.01 207.63,184.01 C210.716667,179.083333 213.926667,174.233333 217.26,169.46 C217.55,169.05 217.82,168.65 218.11,168.25 C218.63,167.51 219.11,166.78 219.69,166.05 C221.07,164.12 222.49,162.18 223.92,160.27 C224.92,158.92 225.92,157.57 227,156.27 C229.6,152.91 232.27,149.57 235,146.27 C237.73,142.97 240.61,139.65 243.52,136.4 C243.92,135.95 244.32,135.51 244.74,135.06 L249.01,130.41 L249.01,130.41 C249.22,130.19 249.4,129.99 249.6,129.79 L249.6,129.79 C250.11,129.24 250.6,128.69 251.15,128.15 C253.44,125.73 255.79,123.34 258.15,120.98 C270.204544,109.002307 283.046524,97.8440832 296.59,87.58 C297.12,87.16 297.66,86.76 298.19,86.36 C300.73,84.44 303.31,82.55 305.89,80.69 C320.083431,70.5130149 334.917455,61.2605391 350.3,52.99 C351.36,52.39 352.44,51.82 353.53,51.25 C367.324649,43.9572162 381.509334,37.4273872 396.02,31.69 C403.926667,28.5633333 411.973333,25.6433333 420.16,22.93 C425.58,21.16 431.02,19.47 436.53,17.93 C445.05,15.4833333 453.676667,13.2766667 462.41,11.31 C488.139162,5.53684989 514.314185,1.97057 540.65,0.65 C548.65,0.23 556.74,0.0195924965 564.92,0.0195924965 C604.390068,-0.0322539256 643.706185,4.94106685 681.92,14.82 C682.72311,16.0338334 684.095035,16.7481419 685.55,16.71 L688.91,16.71 C690.37,17.1 691.82,17.51 693.28,17.93 C701.433333,20.2833333 709.47,22.8466667 717.39,25.62 L719.39,26.34 C738.937749,33.2908124 757.957337,41.6459292 776.3,51.34 C792.832681,60.0612198 808.752783,69.8972705 823.95,80.78 C826.29,82.46 828.596667,84.1566667 830.87,85.87 C833.63,84.09 836.436667,82.3933333 839.29,80.78 C850.309393,74.5075918 862.012751,69.5215856 874.17,65.92 C899.587871,58.3981884 926.482306,57.3463355 952.41,62.86 C985.66,69.91 1015.76,87.41 1040.07,112.3 C1049.97327,122.45095 1058.79405,133.604271 1066.39,145.58 C1066.94,146.44 1067.49,147.31 1068.02,148.19 C1074.53644,158.825337 1080.13662,169.995585 1084.76,181.58 C1084.93,182 1085.1,182.41 1085.25,182.83 C1089.51917,193.671111 1092.96232,204.81957 1095.55,216.18 C1095.67,216.75 1095.81,217.33 1095.93,217.91 C1098.35024,228.904243 1099.9943,240.055084 1100.85,251.28 C1100.85,251.68 1100.85,252.09 1100.93,252.5 C1101.35,258.306667 1101.56333,264.176667 1101.57,270.11 C1101.57,275.41 1101.39,280.67 1101.06,285.88 C1101.06,286.45 1100.98,287.05 1100.93,287.63 C1100.84,289.15 1100.71,290.63 1100.58,292.16 C1108.21722,298.317075 1115.36532,305.057293 1121.96,312.32 C1124.87333,315.5 1127.69333,318.803333 1130.42,322.23 C1138.72748,332.637544 1146.02697,343.81112 1152.22,355.6 C1169.1,387.58 1178.82013,425.12 1178.82013,465.31 Z" id="Path" fill="#6C63FF" fill-rule="nonzero" opacity="0.1"></path>
                <path d="M1065.82,662.14 C1065.82,684.87 1042.26,706.14 1001.15,724.46 L224.59,724.46 C188.66,724.46 155.01,711.46 126.17,688.79 C118.92,680.19 115.1,671.28 115.1,662.13 C115.1,637.97 141.74,615.42 187.8,596.36 L187.8,596.36 L189.1,595.84 C202.1,590.51 216.63,585.48 232.51,580.75 C232.91,580.63 233.32,580.52 233.72,580.38 L233.72,580.38 C246.32,576.68 259.723333,573.173333 273.93,569.86 C274.38,569.76 274.82,569.65 275.27,569.57 C280.75,568.27 286.34,567.06 292.05,565.85 L292.05,565.85 L294.25,565.39 C335.8,556.77 383.03,549.93 434.25,545.29 L434.31,545.29 C441.483333,544.623333 448.733333,544.026667 456.06,543.5 C464.21,542.85 472.46,542.3 480.8,541.79 C487.17,541.38 493.62,541.03 500.09,540.71 C500.137884,540.689428 500.192116,540.689428 500.24,540.71 C529.43,539.24 559.59,538.47 590.43,538.47 C666.69,538.47 738.77,543.15 802.64,551.47 C802.699544,551.459536 802.760456,551.459536 802.82,551.47 C812.64,552.75 822.28,554.1 831.68,555.54 C834.37,555.96 837.05,556.38 839.68,556.81 C850.286667,558.523333 860.62,560.333333 870.68,562.24 L870.68,562.24 C988.98,584.73 1065.82,621.12 1065.82,662.14 Z" id="Path" fill="#6C63FF" fill-rule="nonzero" opacity="0.1"></path>
                <path d="M872.5,243.28 C872.5,243.28 861.92,238.99 828.26,254.42 C794.6,269.85 790.4,267.9 781.69,265.58 C772.98,263.26 768.12,262.66 758.78,249.77 C758.78,249.77 752.19,214.06 745.78,208.52 C739.37,202.98 712.31,211.68 712.31,211.68 C712.31,211.68 679.82,219.13 673.63,175.68 C673.63,175.68 678.02,142.96 672.04,132.92 C672.04,132.92 684.12,138.12 704.04,129.72 C723.96,121.32 739.91,138.77 739.91,138.77 C739.91,138.77 744.91,151.77 744.41,159.53 C743.91,167.29 747.07,170.2 756.57,166.45 C756.57,166.45 761.24,159.81 754.63,148.83 C748.02,137.85 743.3,129.68 745.14,121.16 C746.98,112.64 752.29,100.81 769.34,94.9 C786.39,88.99 809.54,87.9 820.65,83.23 C831.76,78.56 834.5,75.58 834.5,75.58 C834.5,75.58 827.66,82.43 843.77,111.48 C859.88,140.53 849.61,153.13 849.61,153.13 C849.61,153.13 841.04,173.56 803.2,171.9 C803.2,171.9 766.74,173.23 786.62,188.69 C786.62,188.69 799.35,186.1 818.38,180.05 C837.41,174 851.15,198.97 854.56,216.34 C857.97,233.71 872.5,243.28 872.5,243.28 Z" id="Path" fill="#6C63FF" fill-rule="nonzero"></path>
                <path d="M823.49,97.58 L823.69,97.52 C825.15,103.06 808.86,125.34 794.93,143.05 L794.77,142.92 C814.41,117.98 824.62,101.87 823.49,97.58 Z" id="Path" fill="#444053" fill-rule="nonzero"></path>
                <path d="M795.05,142.58 L795.14,142.8 C784.01,156.94 770.02,173.8 758.82,186.33 C757.75,187.52 756.69,188.77 755.67,190.05 L755.35,189.79 C756.35,188.51 757.44,187.25 758.51,186.06 C769.7,173.58 783.91,156.73 795.05,142.58 Z" id="Path" fill="#444053" fill-rule="nonzero"></path>
                <path d="M755.62,189.47 L755.84,189.85 C735.46,215.3 734.11,254.85 734.06,255.16 L729.76,250.16 C729.81,249.84 735.1,215.1 755.62,189.47 Z" id="Path" fill="#444053" fill-rule="nonzero"></path>
                <path d="M848.91,229.48 C848.91,229.48 824.91,216.98 806.15,221.48 C787.39,225.98 745.2,205.58 745.2,205.58 C745.2,205.58 727.3,198.31 723.7,190.02 C723.7,190.02 711.41,177.02 710.7,170.31 C709.99,163.6 698.04,146.69 690.24,146.04" id="Path" stroke="#444053"></path>
                <path d="M845.38,241.51 C845.38,241.51 833.28,233.35 834.69,223.85" id="Path" stroke="#444053"></path>
                <path d="M826.82,252.04 C826.82,252.04 809.51,245.76 807.82,221.12" id="Path" stroke="#444053"></path>
                <path d="M798.91,258.42 C798.91,258.42 782.37,244.7 787.86,220.72" id="Path" stroke="#444053"></path>
                <path d="M765.32,251.72 C765.32,251.72 754.32,228.62 764.11,213.59" id="Path" stroke="#444053"></path>
                <path d="M849.14,214.25 C849.14,214.25 836.63,218.25 839.31,224.81" id="Path" stroke="#444053"></path>
                <path d="M834.04,191.58 C834.04,191.58 817.29,196.89 816.9,220.58" id="Path" stroke="#444053"></path>
                <path d="M810.68,186.06 C810.68,186.06 795.43,204.88 796.55,221.98" id="Path" stroke="#444053"></path>
                <path d="M783.98,193.44 C783.98,193.44 768.84,207.92 770.77,215.97" id="Path" stroke="#444053"></path>
                <path d="M774.85,188.33 C774.85,188.33 760.65,190.87 758.66,186.21" id="Path" stroke="#444053"></path>
                <path d="M756.4,171.19 C756.4,171.19 763.57,180.69 765.4,178.56" id="Path" stroke="#444053"></path>
                <path d="M827.52,165.18 C827.52,165.18 791.72,167.78 783.62,156.98" id="Path" stroke="#444053"></path>
                <path d="M748.91,123.31 C748.91,123.31 765.7,159.36 777.91,163.95" id="Path" stroke="#444053"></path>
                <path d="M766.49,106.14 C766.49,106.14 776.8,139.3 789.58,149.65" id="Path" stroke="#444053"></path>
                <path d="M842.58,137.81 C842.58,137.81 815.36,149.49 799.02,137.67" id="Path" stroke="#444053" stroke-width="0.75"></path>
                <path d="M790.73,99.07 C790.73,99.07 796.95,123.44 805.33,129.33" id="Path" stroke="#444053" stroke-width="0.75"></path>
                <path d="M838.47,110.5 C838.47,110.5 823.17,116.3 817.47,111.86" id="Path" stroke="#444053" stroke-width="0.75"></path>
                <path d="M743.29,179.15 C743.29,179.15 743.29,200.4 737.51,201.91" id="Path" stroke="#444053"></path>
                <path d="M696,206.68 C696,206.68 719,208.68 729.57,196.79" id="Path" stroke="#444053"></path>
                <path d="M737.37,154.05 C737.37,154.05 731.81,175.6 716.47,181.41" id="Path" stroke="#444053"></path>
                <path d="M682.22,183.98 C682.22,183.98 698.48,189.63 712.47,175.24" id="Path" stroke="#444053"></path>
                <path d="M719.28,135.52 C719.28,135.52 717.75,153.82 707.8,162.39" id="Path" stroke="#444053"></path>
                <path d="M682.84,156.09 C682.84,156.09 696.33,156.18 699.49,151.78" id="Path" stroke="#444053"></path>
                <rect id="Rectangle" fill="#33323D" fill-rule="nonzero" x="396.21" y="225.58" width="384.2" height="193.94"></rect>
                <rect id="Rectangle" fill="#33323D" fill-rule="nonzero" x="276.53" y="478.44" width="624.78" height="127.66"></rect>
                <polygon id="Path" fill="#FFFFFF" fill-rule="nonzero" points="425.67 510.35 746.04 510.35 809.87 725.16 358.16 725.16"></polygon>
                <polygon id="Path" fill="#504F60" fill-rule="nonzero" points="258.73 402.33 258.73 468.62 258.73 482.58 258.73 606.09 378.41 606.09 378.41 488.26 799.43 488.26 799.43 606.09 919.11 606.09 919.11 482.58 919.11 468.62 919.11 402.33"></polygon>
                <rect id="Rectangle" fill="#33323D" fill-rule="nonzero" opacity="0.1" x="258.73" y="402.33" width="660.38" height="66.28"></rect>
                <circle id="Oval" fill="#8CCF4D" fill-rule="nonzero" opacity="0.8" cx="883.52" cy="435.48" r="9.82"></circle>
                <circle id="Oval" fill="#FA5959" fill-rule="nonzero" opacity="0.8" cx="839.33" cy="435.48" r="9.82"></circle>
                <rect id="Rectangle" fill="#FFFFFF" fill-rule="nonzero" x="410.33" y="178.93" width="355.97" height="211.12"></rect>
                <path d="M820.45,487.07 C821.2,495.24 815.03,503.17 816.83,511.17 C817.21,512.88 817.95,514.5 818.22,516.17 C818.96,520.92 816.13,525.42 813.42,529.4 L790.19,563.58 C789.258191,565.079449 788.142907,566.456758 786.87,567.68 C782.42,571.68 775.76,571.22 769.93,572.4 C765.831136,573.231099 761.959766,574.936549 758.58,577.4 C758.274538,577.641866 758.208945,578.079157 758.43,578.4 C760.382568,581.078813 763.560257,582.584826 766.87,582.4 C767.48,583.2 766.87,584.4 766.03,584.96 C764.78,585.82 763.03,586.05 762.82,588.17 C762.732083,588.906518 762.879076,589.651986 763.24,590.3 C764.180054,591.731822 765.639204,592.74283 767.31,593.12 C775.31,595.58 784.04,591.26 790.06,585.38 C796.08,579.5 800.4,572.08 806.31,566.09 C809.58,562.78 813.31,559.94 816.67,556.73 C823.39,550.33 828.67,542.54 833.67,534.73 C835.321139,532.46527 836.566316,529.930929 837.35,527.24 C837.97,524.58 837.69,521.77 838.41,519.13 C839.35,515.68 841.88,512.93 843.98,510.03 C848.11,504.35 850.86,497.41 850.31,490.41 C849.76,483.41 845.44,476.52 838.84,474.14 C836.793648,473.325167 834.539833,473.188466 832.41,473.75 C829.7,474.58 827.71,476.82 825.86,478.96 L821.45,484.05 C820.350849,485.17673 819.478373,486.504115 818.88,487.96 C818.299425,489.459415 818.656018,491.160089 819.79,492.3" id="Path" fill="#FBBEBE" fill-rule="nonzero"></path>
                <path d="M820.45,487.07 C821.2,495.24 815.03,503.17 816.83,511.17 C817.21,512.88 817.95,514.5 818.22,516.17 C818.96,520.92 816.13,525.42 813.42,529.4 L790.19,563.58 C789.258191,565.079449 788.142907,566.456758 786.87,567.68 C782.42,571.68 775.76,571.22 769.93,572.4 C765.831136,573.231099 761.959766,574.936549 758.58,577.4 C758.274538,577.641866 758.208945,578.079157 758.43,578.4 C760.382568,581.078813 763.560257,582.584826 766.87,582.4 C767.48,583.2 766.87,584.4 766.03,584.96 C764.78,585.82 763.03,586.05 762.82,588.17 C762.732083,588.906518 762.879076,589.651986 763.24,590.3 C764.180054,591.731822 765.639204,592.74283 767.31,593.12 C775.31,595.58 784.04,591.26 790.06,585.38 C796.08,579.5 800.4,572.08 806.31,566.09 C809.58,562.78 813.31,559.94 816.67,556.73 C823.39,550.33 828.67,542.54 833.67,534.73 C835.321139,532.46527 836.566316,529.930929 837.35,527.24 C837.97,524.58 837.69,521.77 838.41,519.13 C839.35,515.68 841.88,512.93 843.98,510.03 C848.11,504.35 850.86,497.41 850.31,490.41 C849.76,483.41 845.44,476.52 838.84,474.14 C836.793648,473.325167 834.539833,473.188466 832.41,473.75 C829.7,474.58 827.71,476.82 825.86,478.96 L821.45,484.05 C820.350849,485.17673 819.478373,486.504115 818.88,487.96 C818.299425,489.459415 818.656018,491.160089 819.79,492.3" id="Path" fill="#000000" fill-rule="nonzero" opacity="0.05"></path>
                <path d="M838.04,697.36 C832.96,700.45 826.64,700.65 820.74,699.92 C819.74,699.81 818.67,699.74 818.06,700.47 C817.18,701.54 818.22,703.1 819.29,703.96 C822.775914,706.569472 826.866849,708.25195 831.18,708.85 C835.029643,709.387074 838.91315,709.644414 842.8,709.62 C853.4,709.8 864.06,709.98 874.56,708.45 C875.166291,708.404512 875.755988,708.23067 876.29,707.94 C876.967908,707.466888 877.437156,706.750479 877.6,705.94 C878.33,703.22 876.94,700.28 874.85,698.39 C872.76,696.5 870.07,695.44 867.44,694.39 L858.22,690.8 C856.05,689.95 852.58,687.72 850.22,687.89 C845.91,688.24 841.7,695.22 838.04,697.36 Z" id="Path" fill="#3F3D56" fill-rule="nonzero"></path>
                <path d="M838.04,697.36 C832.96,700.45 826.64,700.65 820.74,699.92 C819.74,699.81 818.67,699.74 818.06,700.47 C817.18,701.54 818.22,703.1 819.29,703.96 C822.775914,706.569472 826.866849,708.25195 831.18,708.85 C835.029643,709.387074 838.91315,709.644414 842.8,709.62 C853.4,709.8 864.06,709.98 874.56,708.45 C875.166291,708.404512 875.755988,708.23067 876.29,707.94 C876.967908,707.466888 877.437156,706.750479 877.6,705.94 C878.33,703.22 876.94,700.28 874.85,698.39 C872.76,696.5 870.07,695.44 867.44,694.39 L858.22,690.8 C856.05,689.95 852.58,687.72 850.22,687.89 C845.91,688.24 841.7,695.22 838.04,697.36 Z" id="Path" fill="#000000" fill-rule="nonzero" opacity="0.05"></path>
                <path d="M844.47,574.91 C840.64,580.02 836.66,585.91 837.61,592.24 C838.12,595.65 840.03,598.66 841.43,601.81 C843.182518,606.143696 844.479497,610.647933 845.3,615.25 C846.74,621.94 848.18,628.65 849.06,635.44 C850.06,643.11 845.36,665.3 844.92,673.03 C844.81,674.89 844.6,676.91 843.3,678.25 C842.79,678.78 842.11,679.25 841.89,679.9 C841.749822,680.561606 841.856528,681.251638 842.19,681.84 C844.36,686.73 848.79,690.36 853.71,692.44 C858.63,694.52 870.6,698.09 875.94,698.28 C876.649139,698.365473 877.368366,698.269118 878.03,698 C878.750858,697.568734 879.317649,696.921472 879.65,696.15 C883.51,688.78 879.8,662.54 879.86,654.21 C879.86,647.21 881.55,640.37 881.25,633.43 C881,627.86 879.51,622.43 878.97,616.87 C878.08,607.76 879.75,598.62 881.43,589.62 C882.71,582.73 883.99,575.83 885.63,569.01 C886.63,564.86 887.79,560.66 890.08,557.01 C891.89,554.14 894.35,551.75 896.42,549.01 C902.157222,541.489589 904.704108,532.013305 903.51,522.63 C903.39,521.71 890.19,525.98 889.04,526.48 C884.303064,528.494395 879.944012,531.301232 876.15,534.78 C873.15,537.68 870.7,541.57 868.02,544.83 C864.24,549.43 860.51,554.066667 856.83,558.74 C852.65,564.106667 848.53,569.496667 844.47,574.91 Z" id="Path" fill="#464353" fill-rule="nonzero"></path>
                <path d="M844.47,574.58 C840.64,579.69 836.66,585.58 837.61,591.92 C838.12,595.32 840.03,598.33 841.43,601.48 C843.181221,605.814144 844.47816,610.318244 845.3,614.92 C846.74,621.61 848.18,628.32 849.06,635.11 C850.06,642.78 845.36,664.98 844.92,672.71 C844.81,674.56 844.6,676.59 843.3,677.92 C842.79,678.45 842.11,678.92 841.89,679.57 C841.738318,680.250795 841.845249,680.96367 842.19,681.57 C844.36,686.45 848.79,690.09 853.71,692.16 C858.63,694.23 870.6,696.16 875.94,696.33 C876.649139,696.415473 877.368366,696.319118 878.03,696.05 C878.750858,695.618734 879.317649,694.971472 879.65,694.2 C883.51,686.83 879.8,662.26 879.86,653.94 C879.86,646.94 881.55,640.09 881.25,633.15 C881,627.58 879.51,622.15 878.97,616.59 C878.08,607.48 879.75,598.34 881.43,589.35 C882.71,582.45 883.99,575.55 885.63,568.73 C886.63,564.58 887.79,560.38 890.08,556.73 C891.89,553.87 894.35,551.47 896.42,548.79 C902.150339,541.266205 904.696456,531.792782 903.51,522.41 C903.39,521.48 890.19,525.75 889.04,526.26 C884.299323,528.276106 879.939476,531.09022 876.15,534.58 C873.15,537.49 870.7,541.37 868.02,544.58 C864.24,549.18 860.51,553.82 856.83,558.5 C852.65,563.833333 848.53,569.193333 844.47,574.58 Z" id="Path" fill="#000000" fill-rule="nonzero" opacity="0.05"></path>
                <circle id="Oval" fill="#FBBEBE" fill-rule="nonzero" cx="801.78" cy="440.87" r="21.53"></circle>
                <path d="M821.16,439.97 C825.177509,446.385292 831.626022,450.896004 839.03,452.47 L837.41,458.34 C834.61,468.47 831.41,479.18 823.64,486.2 C824.49,482.77 823.39,479.08 821.45,476.13 C819.375232,473.26015 816.915504,470.689381 814.14,468.49 L801.75,457.71 C801.380638,457.437258 801.065268,457.09815 800.82,456.71 C800.520329,455.951872 800.520329,455.108128 800.82,454.35 C802.4,449.44 806.91,446.35 810.56,443.05 C812.39593,441.330339 814.038965,439.4157 815.46,437.34 C818,433.81 819.53,437.34 821.16,439.97 Z" id="Path" fill="#FBBEBE" fill-rule="nonzero"></path>
                <path d="M773.41,419.23 L772.93,415.23 C776.33,416.11 779.55,413.23 781.72,410.23 C783.89,407.23 785.91,403.71 789.22,402.47 C793.22,400.95 797.5,403.38 801.34,405.38 C805.645049,407.775833 810.371023,409.320601 815.26,409.93 C816.039899,409.95642 816.813049,410.084158 817.56,410.31 C820.06,411.2 821.25,414.31 821.61,417.18 C821.97,420.05 821.87,423.05 823.11,425.59 C824.04,427.51 825.65,428.94 826.63,430.83 C829.26,435.93 826.72,442.89 829.5,447.89 L822.6,441.56 C821.96,440.98 821.07,440.38 820.38,440.87 C819.69,441.36 819.79,442.1 819.56,442.77 C818.89,444.77 816.44,445.33 814.65,444.56 C812.86,443.79 811.57,442.09 810.26,440.56 C807.21,436.96 803.58,433.8 799.26,432.26 C795.477658,430.80964 791.253544,431.061118 787.67,432.95 C784.45,434.77 782.09,439.01 778.15,439.16 C772.74,439.36 770.49,429.29 767.98,425.31 C769.865767,423.882864 770.46314,421.312479 769.4,419.2 C769.84,419.03 773.34,418.58 773.41,419.23 Z" id="Path" fill="#464353" fill-rule="nonzero"></path>
                <path d="M863.15,697.19 C858.894782,700.984244 853.370546,703.043343 847.67,702.96 C846.22,702.96 844.21,703.24 844.2,704.69 C844.225529,705.121305 844.370992,705.536912 844.62,705.89 C846.425702,708.889823 849.273997,711.118614 852.62,712.15 C855.72,713.09 859.04,712.93 862.28,712.77 L871.73,712.28 C873.51,712.18 875.3,712.09 877.08,711.87 C878.86,711.65 880.78,711.28 882.64,711.01 C887.195783,710.358597 891.803099,710.140955 896.4,710.36 C897.62,710.41 899.03,710.36 899.79,709.44 C900.55,708.52 900.14,706.86 899.86,705.53 C899.3,702.79 899.86,699.92 899.34,697.17 C898.43,692.34 894.28,688.65 889.7,686.9 C885.45,685.28 877.91,683.43 873.88,686.12 C869.56,689.02 866.96,693.74 863.15,697.19 Z" id="Path" fill="#3F3D56" fill-rule="nonzero"></path>
                <path d="M872.51,535.58 C873.35,539.58 877.18,542.58 877.3,546.58 C877.39,549.82 875.07,552.58 873.41,555.33 C871.823906,558.211164 870.485749,561.222016 869.41,564.33 C866.254039,572.397115 862.343347,580.148188 857.73,587.48 C855.51,590.99 853.03,594.81 853.54,598.94 C853.889207,600.867375 854.565634,602.720786 855.54,604.42 L862.19,617.63 C863.650667,620.268551 864.792032,623.071608 865.59,625.98 C866.16,628.49 866.22,631.09 866.59,633.65 C867.64,641.75 871.44,649.91 869.2,657.76 C869,658.44 868.3,659.26 867.77,658.76 C869.96,662.86 871.77,667 871.56,671.65 C871.47,674.09 870.72,676.65 871.63,678.91 C872.144964,679.78978 872.484557,680.761017 872.63,681.77 C872.63,682.43 872.32,683.06 872.25,683.77 C872.07,685.64 873.78,687.2 875.57,687.77 C877.36,688.34 879.29,688.32 881.09,688.86 C884.56,689.86 887.02,692.86 889.99,694.94 C892.997628,697.02573 896.550955,698.183516 900.21,698.27 C900.72889,698.325214 901.252261,698.22054 901.71,697.97 C902.240378,697.509361 902.546488,696.842479 902.55,696.14 C902.873905,692.776977 901.501533,689.473534 898.89,687.33 C898.331082,686.97366 897.867654,686.486203 897.54,685.91 C897.37118,685.397811 897.32662,684.85281 897.41,684.32 C897.950254,677.05012 897.819702,669.74593 897.02,662.5 C896.65942,660.205431 896.542103,657.879204 896.67,655.56 C896.87,653.63 897.45,651.71 897.23,649.78 C897.01,647.85 896.04,646.11 895.46,644.25 C894.46,640.95 894.72,637.41 894.61,633.95 C894.43,627.95 893.06,622.07 891.69,616.23 C891.16,613.94 890.56,611.53 888.93,609.83 C887.55,608.39 885.32,607 885.84,605.08 C886.123912,604.369189 886.553063,603.725462 887.1,603.19 C888.40332,601.560593 888.978381,599.466506 888.69,597.4 C889.897048,597.721021 891.160708,597.131313 891.69,596 C902.5,590.91 911.24,580.71 915.09,569.39 C915.305995,568.555468 915.642895,567.757017 916.09,567.02 C917.09,565.62 918.83,565.02 920.37,564.24 C925.21,561.81 928.56,557.24 931.63,552.77 C933.42,550.17 935.2,547.49 935.97,544.44 C936.390697,542.468253 936.591922,540.456009 936.57,538.44 L936.84,528.02 C936.894279,527.346729 936.826525,526.66919 936.64,526.02 C936.38551,525.398078 936.004047,524.836101 935.52,524.37 C932.587602,521.247346 928.73302,519.144847 924.52,518.37 C921.68,517.86 918.78,517.96 915.91,517.72 C910.34,517.26 904.84,515.54 899.27,515.94 C890.51,516.58 882.72,522.65 878.59,530.4 C877.14,533.17 875.62,535.58 872.51,535.58 Z" id="Path" fill="#464353" fill-rule="nonzero"></path>
                <path d="M823.91,467.82 C824.036538,469.426746 823.82184,471.042089 823.28,472.56 C822.6,474.02 820.88,475.15 819.39,474.56 C819.84,473.56 818.64,472.37 817.53,472.5 C816.415357,472.748045 815.494877,473.530078 815.07,474.59 C814.324181,476.075878 814.075293,477.762007 814.36,479.4 C814.71,481.4 815.89,483.4 815.58,485.4 C815.33,487.1 814.08,488.8 814.75,490.4 C815.18079,491.118922 815.720547,491.766631 816.35,492.32 C818.175521,494.558485 817.924813,497.835286 815.78,499.77 L832.56,500.1 C831.95,502.91 833.2,505.78 834.64,508.27 C842.808724,522.143634 856.99973,531.394616 872.99,533.27 C872.128037,533.779165 871.538963,534.647146 871.384119,535.636212 C871.229275,536.625279 871.524891,537.631763 872.19,538.38 C873.55,539.73 875.86,539.56 877.57,538.68 C879.28,537.8 880.63,536.35 882.19,535.23 C884.94157,533.269155 888.305415,532.360775 891.67,532.67 C893.77,532.87 895.81,533.55 897.92,533.67 C904.14,534 909.48,529.53 915.43,527.67 C919.79,526.33 924.72,526.33 928.43,523.61 C930.01,522.44 931.3,520.52 930.84,518.61 C930.449682,517.513834 929.832976,516.512114 929.03,515.67 C926.92,512.95 925.68,509.67 924.18,506.58 C921.188188,500.455519 917.073652,494.946857 912.05,490.34 C908.265708,487.023118 904.256103,483.972477 900.05,481.21 C899.026026,480.446157 897.934891,479.776748 896.79,479.21 C895.262567,478.712443 893.77219,478.107604 892.33,477.4 C890.33,476.16 889.22,473.97 887.71,472.2 C884.38,468.32 879.27,466.53 875.17,463.48 C872.42,461.48 870,458.74 866.71,457.75 C865.12,457.27 863.42,457.23 861.82,456.75 C858.2,455.65 855.56,452.43 852,451.13 C849.18,450.13 846.08,450.37 843.1,450 C839.822118,449.593499 836.690422,448.403248 833.97,446.53 C833.066938,445.802083 832.054429,445.221578 830.97,444.81 C826.48,443.44 826.11,451.81 825.69,454.72 C825.02,459.17 823.91,463.45 823.91,467.82 Z" id="Path" fill="#6C63FF" fill-rule="nonzero"></path>
                <path d="M828.29,495.92 C829.04,504.09 822.87,512.01 824.67,520.02 C825.05,521.73 825.79,523.35 826.06,525.02 C826.81,529.77 823.97,534.27 821.26,538.24 L798.03,572.34 C797.098191,573.839449 795.982907,575.216758 794.71,576.44 C790.26,580.44 783.6,579.98 777.77,581.16 C773.671804,581.9932 769.800866,583.698459 766.42,586.16 C766.114538,586.401866 766.048945,586.839157 766.27,587.16 C768.218906,589.84323 771.399157,591.350458 774.71,591.16 C775.32,591.97 774.71,593.16 773.87,593.72 C772.62,594.59 770.87,594.82 770.66,596.94 C770.572083,597.676518 770.719076,598.421986 771.08,599.07 C772.023085,600.498862 773.480911,601.508953 775.15,601.89 C783.15,604.35 791.88,600.03 797.9,594.15 C803.92,588.27 808.24,580.85 814.16,574.86 C817.43,571.55 821.16,568.71 824.51,565.5 C831.24,559.1 836.46,551.31 841.51,543.5 C843.159232,541.234119 844.404239,538.700123 845.19,536.01 C845.81,533.35 845.53,530.54 846.25,527.9 C847.19,524.45 849.72,521.69 851.82,518.8 C855.95,513.12 858.7,506.18 858.15,499.18 C857.6,492.18 853.28,485.29 846.68,482.91 C844.634749,482.09025 842.379334,481.953452 840.25,482.52 C837.55,483.35 835.55,485.59 833.7,487.73 L829.29,492.82 C828.190483,493.944426 827.320905,495.27257 826.73,496.73 C826.145914,498.224195 826.498873,499.922316 827.63,501.06" id="Path" fill="#FBBEBE" fill-rule="nonzero"></path>
                <path d="M840.05,462.35 C836.99,462.53 833.63,462.83 831.47,465.01 C830.570333,466.011212 829.840679,467.152985 829.31,468.39 C827.22,472.66 825.18,477.12 825.03,481.87 C824.9,485.67 826.03,489.38 826.58,493.14 C827.06,496.26 825.84,499.44 825.58,502.6 C829.37,501.44 834.37,499.86 837.81,497.9 C840.063645,496.425228 842.458848,495.179053 844.96,494.18 C848.61,492.97 854.74,495.05 858.18,496.76 C858.37,494.32 856.55,490.09 856.74,487.65 C856.770361,486.628768 856.95235,485.61772 857.28,484.65 C857.798058,483.625134 858.41072,482.650902 859.11,481.74 C861.831262,477.336098 861.398913,471.679203 858.04,467.74 C854.97,464.28 850.15,462.98 845.56,462.45 C842.666414,462.112139 839.750273,462.008469 836.84,462.14" id="Path" fill="#6C63FF" fill-rule="nonzero"></path>
                <path d="M387,392.39 L367.28,363.79 C367.28,363.79 366.91,356.71 365.62,355.06 C364.33,353.41 365.34,349.73 365.34,349.73 C365.34,349.73 366.73,347.73 365.53,347.52 C364.33,347.31 365.34,342.83 365.34,342.83 L365.25,335.66 C365.25,335.66 366.36,328.76 365.44,327.11 C364.88495,326.195138 364.920212,325.039324 365.53,324.16 C365.53,324.16 366.63,320.21 365.53,319.16 C364.43,318.11 364.7,311.99 364.97,307.11 C365.24,302.23 363.04,299.48 363.04,298.75 C363.04,298.02 355.76,290.84 355.76,290.19 C355.76,289.54 351.15,286.88 348.38,286.19 C345.61,285.5 344.24,284.9 344.33,284.53 C344.42,284.16 340,282.7 340,282.7 C340,282.7 336.13,282.42 334.65,280.49 C333.17,278.56 328.65,278 328.54,277.98 L328.45,277.6 C328.45,277.46 328.4,277.32 328.37,277.18 C328.73506,276.598183 329.068867,275.997332 329.37,275.38 L329.63,274.82 C331.24958,274.830448 332.832448,274.337768 334.16,273.41 C335.481709,272.31433 336.28338,270.714615 336.37,269 C336.448837,267.299969 336.076215,265.609367 335.29,264.1 C334.48,262.45 333.29,260.73 333.71,258.93 C333.89,258.16 334.35,257.48 334.59,256.72 C334.948229,255.236261 334.711322,253.671238 333.93,252.36 C333.23,251.03 332.26,249.85 331.48,248.56 C330.490775,246.908419 329.82873,245.081853 329.53,243.18 C329.474406,242.168147 329.233761,241.175062 328.82,240.25 C328.401515,239.598082 327.84933,239.042489 327.2,238.62 C324.314446,236.561505 320.832764,235.507514 317.29,235.62 C314.78,235.7 312.29,236.38 309.79,236.07 C308.300538,235.813855 306.835342,235.432502 305.41,234.93 C302.32,234.01 298.75,233.64 296.06,235.41 C293.37,237.18 292.3,240.66 290.47,243.41 C288.86,245.81 286.47,247.83 285.27,250.41 C285.27,250.41 285.27,250.31 285.27,250.27 C284.967901,250.857321 284.736293,251.478297 284.58,252.12 C284.236661,254.157363 284.377106,256.246908 284.99,258.22 C285.125354,259.282296 285.657663,260.254029 286.48,260.94 C287.39,261.53 288.64,261.39 289.7,261.58 L289.58,262.1 C287.342395,272.817812 293.694634,283.461399 304.19,286.58 C304.19,286.77 304.19,286.95 304.19,287.14 C304.187835,287.668177 304.154443,288.195764 304.09,288.72 L304.09,288.72 C304.09,288.72 294.82,286.81 292.33,288.1 C289.84,289.39 284.96,290.4 284.22,291.1 C283.48,291.8 281.64,291.29 279.98,295.61 C278.32,299.93 278.14,304.34 275.98,306.37 C273.82,308.4 272.76,309.77 272.66,311.24 C272.56,312.71 272.94,313.08 272.11,313.54 C271.28,314 270.11,315.93 270.45,316.67 C270.710182,317.704901 270.314163,318.793952 269.45,319.42 C268.560027,320.045342 268.068905,321.096116 268.16,322.18 C268.16,322.18 267.6,324.18 266.31,324.67 C265.02,325.16 264.19,328.16 264.19,328.16 L260.01,332.96 L251.73,323.8 C250.435237,322.37468 248.232306,322.26297 246.8,323.55 L242.73,327.21 C241.161637,327.590974 239.743771,328.43403 238.66,329.63 C237.778052,330.544898 237.063845,331.607747 236.55,332.77 L234.33,334.77 C232.895973,336.546554 232.667374,339.0099 233.75,341.02 L239.06,346.89 L239.06,346.94 C237.178887,347.105563 235.391249,347.83386 233.93,349.03 C226.01,356.03 225.93,362.46 227.11,365.4 C228.29,368.34 238.35,379.65 238.35,379.65 C238.35,379.65 244.19,387.24 252.62,391.27 L252.62,391.27 L252.56,391.34 C252.38649,391.521009 252.222916,391.711288 252.07,391.91 L251.93,392.09 L251.8,392.27 L251.65,392.49 C251.609727,392.54772 251.572993,392.607831 251.54,392.67 L251.38,392.93 C251.342883,392.987819 251.309483,393.04794 251.28,393.11 C251.21,393.23 251.15,393.35 251.09,393.47 C251.068009,393.508973 251.047984,393.549023 251.03,393.59 C250.95,393.75 250.87,393.91 250.8,394.09 L250.72,394.27 C250.67,394.39 250.63,394.51 250.58,394.64 C250.548853,394.718436 250.522145,394.798563 250.5,394.88 L250.38,395.24 C250.347463,395.324751 250.320735,395.411618 250.3,395.5 C250.3,395.63 250.22,395.76 250.19,395.9 C250.16,396.04 250.14,396.06 250.12,396.15 C250.1,396.24 250.02,396.58 249.98,396.81 C249.98,396.89 249.98,396.98 249.93,397.07 C249.88,397.16 249.88,397.38 249.85,397.54 C249.82,397.7 249.85,397.76 249.85,397.88 L249.79,398.33 L249.79,398.69 C249.79,398.86 249.79,399.03 249.74,399.21 C249.69,399.39 249.74,399.42 249.74,399.53 C249.74,399.82 249.74,400.11 249.74,400.42 C249.56,411.18 250.19,412.74 250.19,412.74 C251.027722,414.764356 252.902212,416.171182 255.08,416.41 C255.604593,416.451162 256.132308,416.424272 256.65,416.33 C261.45,415.5 272.65,413.57 276.65,414.33 C279.04,414.77 283.45,414.11 286.59,413.52 L287.42,413.36 L287.99,415.19 L289.81,414.69 L291.36,415.58 L292.36,416.15 C294.18,422.31 301.56,420.21 301.56,420.21 L303.31,421.21 L321.1,421.67 C323.096999,422.873323 325.207075,423.878122 327.4,424.67 C327.689709,424.764537 327.987699,424.831501 328.29,424.87 C329.953102,425.005391 331.623103,425.035451 333.29,424.96 C334.65,424.96 335.7,424.87 335.7,424.87 C335.7,424.87 335.52,420.04 335.26,414.63 C340.774525,414.493558 346.276787,414.042827 351.74,413.28 C361.24,411.62 365.2,402.98 366.66,398.36 C367.096918,400.247225 367.407606,402.161465 367.59,404.09 C367.978213,405.785996 368.472518,407.455947 369.07,409.09 C369.579302,410.395872 370.251271,411.632295 371.07,412.77 C378.07,410.38 373.83,406.77 372.36,405.23 C370.89,403.69 373.36,402.38 373.36,402.38 C373.36,402.38 375.3,401.09 375.11,399.9 C374.92,398.71 374.83,397.42 381.11,397.51 C387.39,397.6 387,392.39 387,392.39 Z M289.68,333.68 C289.76,334.2 290.68,339.87 291.42,341.36 C291.640827,342.343697 291.711627,343.355132 291.63,344.36 C287.92,344.06 284.05,343.9 284.05,343.9 C284.15877,344.035203 284.227992,344.197876 284.25,344.37 L283.66,344.24 L282.82,344.04 L289.66,333.63 L289.68,333.68 Z M276.12,355.24 L282.55,356.24 L283.09,356.32 C282.90819,357.310791 282.797905,358.31338 282.76,359.32 C282.76,359.42 282.9,359.53 283.11,359.66 C283.020502,360.164905 282.980313,360.677316 282.99,361.19 C283.09,361.69 286.09,362.79 289.54,363.7 C289.49,363.89 289.45,364.07 289.4,364.23 L289.4,364.23 C286.35,362.63 281.56,361.88 281.01,360.69 C280.46,359.5 264.14,353.8 264.14,353.8 L262.52,352.99 L266.81,353.8 L267.99,353.68 C270.663327,354.375646 273.379055,354.896746 276.12,355.24 L276.12,355.24 Z" id="Shape" fill="url(#linearGradient-1)" fill-rule="nonzero"></path>
                <path d="M366.02,396.39 C366.02,396.39 363.47,411.83 350.5,414.11 C337.53,416.39 294.23,415.94 294.23,415.94 C294.23,415.94 269.47,412.37 260.52,391.46 C251.57,370.55 245.81,362.22 253.52,361.86 C261.23,361.5 302.58,375.86 304.95,376.02 C307.32,376.18 368.31,344.23 366.02,396.39 Z" id="Path" fill="#65617D" fill-rule="nonzero"></path>
                <path d="M366.02,396.39 C366.02,396.39 363.47,411.83 350.5,414.11 C337.53,416.39 294.23,415.94 294.23,415.94 C294.23,415.94 269.47,412.37 260.52,391.46 C251.57,370.55 245.81,362.22 253.52,361.86 C261.23,361.5 302.58,375.86 304.95,376.02 C307.32,376.18 368.31,344.23 366.02,396.39 Z" id="Path" fill="#000000" fill-rule="nonzero" opacity="0.05"></path>
                <path d="M249.91,413.58 C250.728973,415.59444 252.588028,416.996413 254.75,417.23 C255.27505,417.262486 255.802101,417.232273 256.32,417.14 C261.07,416.32 272.21,414.4 276.14,415.14 C278.5,415.57 282.87,414.92 285.98,414.34 C288.05,413.95 289.57,413.58 289.57,413.58 C289.57,413.58 285.91,401.43 285.46,401.07 C285.01,400.71 269.01,391.07 269.01,391.07 L256.35,390.16 L256.35,390.16 C254.645591,390.414804 253.105255,391.317512 252.05,392.68 C250.72,394.3 249.57,396.95 249.49,401.3 C249.28,412.01 249.91,413.58 249.91,413.58 Z" id="Path" fill="#3F3D56" fill-rule="nonzero"></path>
                <path d="M249.91,413.58 C250.728973,415.59444 252.588028,416.996413 254.75,417.23 C253.510097,415.629439 252.3616,413.960113 251.31,412.23 L251.38,403.37 C250.869881,398.442157 252.724683,393.564027 256.38,390.22 L256.38,390.22 C256.38,390.22 249.71,390.67 249.52,401.36 C249.33,412.05 249.91,413.58 249.91,413.58 Z" id="Path" fill="#000000" fill-rule="nonzero" opacity="0.05"></path>
                <path d="M304.82,394.2 L316.61,384.97 L335.15,366.7 L330.15,366.47 C329.4,366.95 327.3,368.47 327.22,370.29 C327.13,372.52 322.22,370.45 319.65,371.72 C317.08,372.99 304.58,389.02 302.39,388.91 C300.2,388.8 298.46,387.8 297.54,389.36 L297.48,389.46 L304.82,394.2 Z" id="Path" fill="#000000" fill-rule="nonzero" opacity="0.1"></path>
                <path d="M252.02,392.7 C252.44,392.9 252.87,393.1 253.3,393.28 C262.25,397.12 273.3,405.16 274.13,406.62 C274.63,407.51 281.04,411.4 285.98,414.32 C288.05,413.93 289.57,413.56 289.57,413.56 C289.57,413.56 285.91,401.41 285.46,401.05 C285.01,400.69 269.01,391.05 269.01,391.05 L256.35,390.14 L256.35,390.14 C254.6286,390.397566 253.075355,391.315882 252.02,392.7 L252.02,392.7 Z" id="Path" fill="#000000" fill-rule="nonzero" opacity="0.1"></path>
                <path d="M227.18,366.52 C228.36,369.44 238.32,380.68 238.32,380.68 C238.32,380.68 244.62,388.9 253.58,392.68 C262.54,396.46 273.58,404.56 274.4,406.02 C274.93,406.96 282.07,411.26 287.09,414.21 L288.22,414.87 L290.71,416.32 L292.03,417.07 C292.03,417.07 295.09,414.62 298.14,412.15 C301.19,409.68 304.14,407.26 304.14,407.15 C304.14,407.04 305.42,403.77 305.14,403.59 C304.86,403.41 304.37,402.23 303.21,400.76 C301.985719,399.130057 300.392039,397.813986 298.56,396.92 C295.90957,395.557715 293.795757,393.341734 292.56,390.63 C292.56,390.63 292.16,390.34 291.56,389.95 C290.316296,389.095202 288.926782,388.475005 287.46,388.12 C285.46,387.87 281.7,383.76 281.7,383.76 C280.237761,382.808195 279.018582,381.527372 278.14,380.02 C277.14,378.02 263.01,368.28 261.7,367.38 L296.04,389.44 L304.26,394.72 L316.05,385.5 L334.59,367.23 L328.47,366.95 C319.47,366.56 303.47,365.95 301.47,366.41 C299.831774,366.787148 298.143583,366.898569 296.47,366.74 C296.47,366.74 291.91,366.94 288.89,365.35 C285.87,363.76 281.12,363.01 280.57,361.83 C280.02,360.65 263.86,354.99 263.86,354.99 C263.86,354.99 241.86,343.3 233.99,350.24 C226.12,357.18 225.99,363.58 227.18,366.52 Z" id="Path" fill="#65617D" fill-rule="nonzero"></path>
                <path d="M298.15,299.47 L300.98,308.88 L304.64,330.07 L318.07,330.98 L321.91,324.58 L325.79,318.14 C325.79,318.14 328.21,309.58 329.95,301.3 C331.48,293.97 332.49,286.85 330.82,286.08 C329.33,285.4 328.36,282.93 327.72,280.27 C327.64,279.95 327.57,279.61 327.51,279.27 C327.062107,277.022007 326.761468,274.747168 326.61,272.46 C326.61,272.46 298.48,271 302.41,282.6 C303.111093,284.581564 303.469552,286.668066 303.47,288.77 C303.47,289.31 303.47,289.84 303.37,290.34 C302.975701,293.976934 301.084207,297.285237 298.15,299.47 Z" id="Path" fill="#EE8E9E" fill-rule="nonzero"></path>
                <path d="M292.31,297.92 L293.31,313.92 L295.59,327.53 L298.15,333.84 L300.44,368.32 C300.44,368.32 322.44,370.87 327.82,368.27 C328.216693,368.11804 328.563044,367.858277 328.82,367.52 C335.29,357.75 333.17,329.45 333.17,329.45 L335.63,311.18 L333.99,301.7 L329.99,301.28 L326.93,300.95 C326.93,300.95 326.24,301.8 325.24,303.12 C322.53,306.69 317.55,313.73 317.89,316.66 C318.34,320.66 317.34,324.79 315.78,325.43 C314.22,326.07 312.95,327.17 312.68,326.07 C312.291304,325.147938 312.19361,324.129126 312.4,323.15 C312.68,321.59 311.21,316.84 311.21,316.84 C311.21,316.84 308.75,311.27 308.93,308.9 C309.11,306.53 308.66,303.78 307.93,303.14 C307.2,302.5 306.19,301.86 307.01,298.94 C307.83,296.02 303.41,290.33 303.41,290.33 L292.31,297.92 Z" id="Path" fill="#E3E8F4" fill-rule="nonzero"></path>
                <path d="M321.4,337.84 L322.32,365.15 L327.59,368.08 C327.985618,367.921213 328.331084,367.658659 328.59,367.32 C335.06,357.55 332.94,329.25 332.94,329.25 L335.41,310.98 L333.76,301.5 L329.76,301.08 C331.3,293.75 332.3,286.64 330.63,285.86 C329.14,285.18 328.17,282.71 327.54,280.06 L327.54,280.06 L324.69,299.38 C324.69,299.38 324.93,301.12 325.01,302.92 C325.128427,304.058145 325.050631,305.208173 324.78,306.32 C324.410524,307.815338 324.349281,309.370234 324.6,310.89 C322.95,313.79 322.13,319.17 321.73,324.36 C321.19,331.26 321.4,337.84 321.4,337.84 Z" id="Path" fill="#000000" fill-rule="nonzero" opacity="0.1"></path>
                <path d="M327.62,279.58 C327.62,279.58 332.23,280.15 333.69,282.07 C335.15,283.99 338.99,284.27 338.99,284.27 C338.99,284.27 343.37,285.73 343.28,286.09 C343.19,286.45 344.56,287.01 347.28,287.74 C350,288.47 354.59,291.12 354.59,291.74 C354.59,292.36 361.8,299.5 361.8,300.23 C361.8,300.96 363.99,303.7 363.72,308.54 C363.45,313.38 363.17,319.54 364.27,320.54 C365.37,321.54 364.27,325.47 364.27,325.47 C363.666274,326.343938 363.63105,327.490655 364.18,328.4 C365.09,330.04 363.99,336.89 363.99,336.89 L364.09,344.02 C364.09,344.02 363.09,348.49 364.27,348.68 C365.45,348.87 364.09,350.87 364.09,350.87 C364.09,350.87 363.09,354.52 364.36,356.17 C365.63,357.82 366,364.84 366,364.84 L385.55,393.25 C385.55,393.25 385.83,398.46 379.62,398.37 C373.41,398.28 373.49,399.56 373.68,400.74 C373.87,401.92 371.94,403.21 371.94,403.21 C371.94,403.21 369.48,404.49 370.94,406.04 C372.4,407.59 376.6,411.16 369.66,413.53 C368.842305,412.402399 368.170319,411.176026 367.66,409.88 C367.071805,408.268455 366.584201,406.621957 366.2,404.95 C366.2,404.95 365.56,398 364.28,397.09 C363,396.18 363.18,391.79 363.18,391.79 C363.18,391.79 365.01,388.23 362.45,386.79 C359.89,385.35 322.81,364.79 322.81,364.79 L321.91,337.47 C321.91,337.47 321.27,317.28 325.11,310.52 C324.859281,309.000234 324.920524,307.445338 325.29,305.95 C325.93,304.31 325.2,299.01 325.2,299.01 L327.62,279.58 Z" id="Path" fill="#3F3D56" fill-rule="nonzero"></path>
                <path d="M303.68,290.58 C303.68,290.58 294.5,288.69 292.03,289.97 C289.56,291.25 284.73,292.25 284.03,292.97 C283.33,293.69 281.48,293.16 279.83,297.45 C278.18,301.74 278.01,306.13 275.9,308.14 C273.79,310.15 272.71,311.52 272.62,312.98 C272.53,314.44 272.89,314.81 272.07,315.26 C271.25,315.71 270.07,317.64 270.42,318.37 C270.77,319.1 289.42,335.18 289.42,335.18 C289.42,335.18 290.34,341.3 291.16,342.85 C291.98,344.4 290.25,365.78 288.42,367.24 C286.59,368.7 300.71,368.58 300.71,368.58 C300.71,368.58 301.35,354.58 301.9,353.82 C302.45,353.06 301.53,338.11 301.53,338.11 C301.53,338.11 301.44,325.32 302.63,321.94 C303.82,318.56 303.63,307.32 303.63,307.32 C303.63,307.32 304.68,300.58 305.96,299.01 C307.24,297.44 303.68,290.58 303.68,290.58 Z" id="Path" fill="#000000" fill-rule="nonzero" opacity="0.1"></path>
                <path d="M303.41,290.31 C303.41,290.31 294.23,288.42 291.76,289.69 C289.29,290.96 284.45,291.98 283.76,292.69 C283.07,293.4 281.2,292.87 279.56,297.17 C277.92,301.47 277.73,305.84 275.63,307.85 C273.53,309.86 272.43,311.23 272.34,312.69 C272.25,314.15 272.62,314.52 271.79,314.98 C270.96,315.44 269.79,317.35 270.15,318.08 C270.51,318.81 289.15,334.89 289.15,334.89 C289.15,334.89 290.06,341.01 290.89,342.56 C291.72,344.11 289.97,365.49 288.14,366.95 C286.31,368.41 300.48,368.28 300.48,368.28 C300.48,368.28 301.12,354.28 301.66,353.53 C302.2,352.78 301.3,337.81 301.3,337.81 C301.3,337.81 301.21,325.03 302.4,321.65 C303.59,318.27 303.45,307.03 303.45,307.03 C303.45,307.03 304.5,300.29 305.78,298.72 C307.06,297.15 303.41,290.31 303.41,290.31 Z" id="Path" fill="#3F3D56" fill-rule="nonzero"></path>
                <path d="M302.45,282.58 C303.151093,284.561564 303.509552,286.648066 303.51,288.75 C312.741605,291.453912 322.630047,287.539737 327.51,279.25 C327.062107,277.002007 326.761468,274.727168 326.61,272.44 C326.61,272.44 298.52,270.97 302.45,282.58 Z" id="Path" fill="#000000" fill-rule="nonzero" opacity="0.1"></path>
                <path d="M288.559995,268.14 C288.552571,279.273756 297.262869,288.464623 308.380986,289.054563 C319.499104,289.644503 329.133109,281.427004 330.303943,270.35498 C331.474778,259.282956 323.772588,249.232205 312.776987,247.483682 C301.781387,245.73516 291.34142,252.900942 289.02,263.79 C288.713537,265.219696 288.559343,266.677827 288.559995,268.14 Z" id="Path" fill="#EE8E9E" fill-rule="nonzero"></path>
                <path d="M275.13,316.58 L270.13,318.13 C270.391518,319.162056 269.994817,320.249015 269.13,320.87 C268.244301,321.488129 267.759237,322.534643 267.86,323.61 C267.86,323.61 267.31,325.61 266.03,326.08 C264.75,326.55 263.93,329.55 263.93,329.55 L259.73,334.39 C259.73,334.39 258.17,335.67 258.45,336.31 C258.73,336.95 256.8,337.13 256.8,337.13 L257.8,353.39 L266.48,355.04 L271.87,354.49 L276.25,352.85 L280.09,350.56 L281.82,346.09 L289.5,334.39 L275.13,316.58 Z" id="Path" fill="#3F3D56" fill-rule="nonzero"></path>
                <path d="M258.05,338.38 C258.05,338.38 246.91,322.31 238.59,330.98 C230.27,339.65 241.97,353.73 244.71,353.27 C247.45,352.81 260.52,352.08 260.52,352.08 L258.05,338.38 Z" id="Path" fill="#EE8E9E" fill-rule="nonzero"></path>
                <rect id="Rectangle" fill="#3F3D56" fill-rule="nonzero" transform="translate(249.394413, 339.042222) rotate(27.040000) translate(-249.394413, -339.042222) " x="220.229413" y="316.397222" width="58.33" height="45.29" rx="1.54"></rect>
                <rect id="Rectangle" fill="#6C63FF" fill-rule="nonzero" transform="translate(249.482945, 338.975150) rotate(27.040000) translate(-249.482945, -338.975150) " x="224.967945" y="320.50015" width="49.03" height="36.95"></rect>
                <circle id="Oval" fill="#E6E8EC" fill-rule="nonzero" cx="225.97" cy="326.96" r="1"></circle>
                <circle id="Oval" fill="#E6E8EC" fill-rule="nonzero" cx="273.24" cy="351.18" r="1.33"></circle>
                <path d="M250.8397,341.76 C250.74,353.82 275.68,356.38 275.68,356.38 L282.05,357.38 L284.91,357.83 L286.1,346.05 C286.1,346.05 284.79,345.85 283.16,345.47 C280.74,344.91 277.61,343.94 276.96,342.57 C275.91,340.3 250.91,329.7 250.8397,341.76 Z" id="Path" fill="#EE8E9E" fill-rule="nonzero"></path>
                <path d="M289.02,263.79 C289.593407,263.832452 290.134248,264.072825 290.55,264.47 C291.25,265.22 291.29,266.55 292.21,267.01 C292.553942,267.155113 292.932727,267.196814 293.3,267.13 C295.73,266.79 297.13,264.05 299.47,263.29 C300.830322,262.940407 302.269094,263.063831 303.55,263.64 C304.070433,263.808588 304.538765,264.108183 304.91,264.51 C305.69,265.51 305.14,267.01 305.5,268.23 C306,269.93 308.03,270.6 309.78,270.82 C311.53,271.04 313.51,271.17 314.68,272.49 C315.463366,273.49106 315.780106,274.779866 315.55,276.03 C315.444869,276.460339 315.444869,276.909661 315.55,277.34 C316.03,278.71 318.4,278.5 319.02,277.42 C319.48,276.63 319.34,275.98 320.41,275.76 C321.174361,275.699173 321.941653,275.833363 322.64,276.15 C324.501673,276.788802 326.462419,277.090195 328.43,277.04 C331.845386,269.755817 330.781083,261.158443 325.692544,254.926994 C320.604006,248.695545 312.392885,245.934191 304.573007,247.824612 C296.753129,249.715032 290.710122,255.922258 289.03,263.79 L289.02,263.79 Z" id="Path" fill="#000000" fill-rule="nonzero" opacity="0.1"></path>
                <path d="M315.54,276.79 C315.43526,276.359614 315.43526,275.910386 315.54,275.48 C315.771081,274.232974 315.454098,272.946826 314.67,271.95 C313.5,270.62 311.53,270.5 309.77,270.27 C308.01,270.04 305.99,269.38 305.49,267.68 C305.13,266.46 305.68,264.97 304.9,263.97 C304.534682,263.561175 304.064315,263.260278 303.54,263.1 C302.260051,262.521272 300.821513,262.394342 299.46,262.74 C297.12,263.5 295.72,266.24 293.29,266.58 C292.922915,266.651714 292.542692,266.609855 292.2,266.46 C291.28,266 291.2,264.67 290.54,263.92 C289.43,262.75 287.32,263.51 285.97,262.64 C285.151244,261.956715 284.6223,260.988176 284.49,259.93 C283.885279,257.96895 283.748287,255.893521 284.09,253.87 C284.88,250.48 287.92,248.15 289.85,245.24 C291.66,242.54 292.68,239.12 295.39,237.33 C298.1,235.54 301.59,235.94 304.66,236.85 C306.071346,237.353601 307.523353,237.735004 309,237.99 C311.47,238.29 313.95,237.62 316.43,237.54 C319.945033,237.426455 323.398527,238.481493 326.25,240.54 C326.893,240.959423 327.438597,241.511839 327.85,242.16 C328.262337,243.079053 328.50621,244.064708 328.57,245.07 C328.86216,246.958008 329.517586,248.771466 330.5,250.41 C331.26,251.7 332.23,252.86 332.92,254.19 C333.691411,255.493767 333.927951,257.045614 333.58,258.52 C333.34,259.27 332.88,259.95 332.7,260.72 C332.3,262.5 333.47,264.21 334.27,265.85 C335.048476,267.351083 335.41754,269.03084 335.34,270.72 C335.253797,272.421795 334.459714,274.009961 333.15,275.1 C331.791899,276.042217 330.172747,276.535307 328.52,276.51 C326.515787,276.571019 324.517032,276.269512 322.62,275.62 C321.920146,275.308277 321.154111,275.174307 320.39,275.23 C319.32,275.45 319.46,276.1 319,276.89 C318.39,277.95 316.03,278.16 315.54,276.79 Z" id="Path" fill="#3F3D56" fill-rule="nonzero"></path>
                <path d="M304.27,394.74 L316.06,385.52 L334.6,367.25 L328.48,366.97 C327.761476,367.619646 327.303107,368.507959 327.19,369.47 C327.1,371.7 322.19,369.62 319.62,370.9 C317.05,372.18 304.55,388.2 302.36,388.09 C300.17,387.98 298.43,386.98 297.51,388.53 L297.45,388.63 C297.085107,389.050469 296.593994,389.341629 296.05,389.46 L304.27,394.74 Z" id="Path" fill="#000000" fill-rule="nonzero" opacity="0.1"></path>
                <path d="M280.52,394.1 L286.44,413.01 L287.37,416.01 L290.19,415.24 L296.41,413.53 L324.09,405.93 C327.576758,405.778795 330.98893,404.871157 334.09,403.27 C339.323053,400.337915 345.31136,399.032325 351.29,399.52 C354.95,399.86 359.02,398.28 362.4,392.04 C362.4,392.04 370.07,369.39 350.71,362.9 C331.35,356.41 330.42,366.35 330.42,366.35 L330.15,366.51 C329.4,366.99 327.3,368.51 327.22,370.33 C327.13,372.56 322.22,370.49 319.65,371.76 C317.08,373.03 304.58,389.06 302.39,388.95 C300.2,388.84 298.46,387.84 297.54,389.4 L297.48,389.5 C296.8,390.43 294.77,390.65 293.42,390.68 C293.00029,390.702065 292.57971,390.702065 292.16,390.68 L291.98,390.73 L290.58,391.15 L280.52,394.1 Z" id="Path" fill="#65617D" fill-rule="nonzero"></path>
                <path d="M282.05,357.39 L284.91,357.84 L286.1,346.06 C286.1,346.06 284.79,345.86 283.16,345.48 C283.59,347.13 282.61,353.48 282.05,357.39 Z" id="Path" fill="#000000" fill-rule="nonzero" opacity="0.1"></path>
                <path d="M356.75,302.33 C356.75,302.33 365.24,299.86 363.14,323.98 C361.682088,338.701518 355.424053,352.535255 345.33,363.35 C345.33,363.35 327.24,371.29 319.11,370.01 C310.98,368.73 305.05,368.46 305.05,368.46 C302.488424,367.166637 299.685609,366.420809 296.82,366.27 C292.26,366.09 282.67,363.27 282.48,362.34 C282.29,361.41 284.86,348 283.76,347 C283.76,347 296.55,347.52 297.83,348.44 C299.11,349.36 300.94,348.71 302.31,348.44 C303.68,348.17 307.88,344.53 316.19,347.73 C316.19,347.73 319.02,348 320.12,347.27 C321.0167,346.852177 322.037991,346.7879 322.98,347.09 C323.690969,346.853811 324.364467,346.517062 324.98,346.09 C325.25,345.73 327.45,346.09 327.45,346.09 C327.714962,346.208402 328.018293,346.205857 328.28123,346.083025 C328.544168,345.960192 328.740775,345.729191 328.82,345.45 C329.109171,344.704719 329.544358,344.024739 330.1,343.45 C330.1,343.45 332.56,329.57 337.22,324.36 C337.975592,323.69953 338.350889,322.704991 338.22,321.71 C337.84,320.23 345.79,299.4 356.75,302.33 Z" id="Path" fill="#000000" fill-rule="nonzero" opacity="0.1"></path>
                <path d="M356.52,300.47 C356.52,300.47 365.02,298.01 362.92,322.12 C361.465723,336.842492 355.207183,350.677342 345.11,361.49 C345.11,361.49 327.02,369.44 318.89,368.16 C310.76,366.88 304.82,366.58 304.82,366.58 C302.262315,365.285774 299.462572,364.539857 296.6,364.39 C292.03,364.2 282.44,361.39 282.26,360.46 C282.08,359.53 284.63,346.12 283.54,345.11 C283.54,345.11 296.33,345.64 297.61,346.56 C298.89,347.48 300.71,346.82 302.08,346.56 C303.45,346.3 307.65,342.65 315.97,345.84 C315.97,345.84 318.8,346.12 319.89,345.39 C320.787131,344.975546 321.805928,344.907863 322.75,345.2 C323.458674,344.958292 324.13143,344.621915 324.75,344.2 C325.02,343.83 327.21,344.2 327.21,344.2 C327.474962,344.318402 327.778293,344.315857 328.04123,344.193025 C328.304168,344.070192 328.500775,343.839191 328.58,343.56 C328.869171,342.814719 329.304358,342.134739 329.86,341.56 C329.86,341.56 332.33,327.68 336.99,322.47 C337.745592,321.80953 338.120889,320.814991 337.99,319.82 C337.62,318.38 345.56,297.58 356.52,300.47 Z" id="Path" fill="#3F3D56" fill-rule="nonzero"></path>
                <path d="M290.55,391.1 L302.61,405.7 L302.69,405.62 C302.78,405.34 303.97,402.24 303.69,402.05 C303.41,401.86 301.32,397.3 297.12,395.38 C294.983685,394.338472 293.189813,392.707679 291.95,390.68 L290.55,391.1 Z" id="Path" fill="#000000" fill-rule="nonzero" opacity="0.1"></path>
                <path d="M290.71,416.37 L292.03,417.12 C292.03,417.12 295.09,414.67 298.14,412.2 C301.19,409.73 304.14,407.31 304.14,407.2 C304.14,407.09 305.42,403.82 305.14,403.64 C304.86,403.46 304.37,402.28 303.21,400.81 C295.03,398.52 300.21,404.2 300.93,404.46 C300.93,404.46 290.98,402.17 290.43,413.02 C290.38255,414.143989 290.476621,415.269484 290.71,416.37 L290.71,416.37 Z" id="Path" fill="#000000" fill-rule="nonzero" opacity="0.1"></path>
                <path d="M300.8,420.96 L302.54,421.96 L320.17,422.41 C322.146699,423.612004 324.236744,424.616834 326.41,425.41 C326.698027,425.495806 326.992228,425.559326 327.29,425.6 C328.92647,425.733537 330.569741,425.763597 332.21,425.69 C333.56,425.69 334.6,425.6 334.6,425.6 C334.6,425.6 333.77,403.37 333.14,401.03 C332.84,399.91 331.36,400.15 329.9,400.71 C328.805538,401.15789 327.748808,401.692943 326.74,402.31 C326.74,402.31 319.26,403.04 318.07,403.68 C316.88,404.32 313.5,403.31 311.4,403.68 C309.3,404.05 305.55,401.21 305.55,401.21 C295.32,397.83 301.08,404.13 301.81,404.41 C301.81,404.41 291.81,402.12 291.3,412.97 C290.79,423.82 300.8,420.96 300.8,420.96 Z" id="Path" fill="#3F3D56" fill-rule="nonzero"></path>
                <path d="M326.29,412.38 C326.48,416.98 330.07,422.69 332.21,425.71 C333.56,425.71 334.6,425.62 334.6,425.62 C334.6,425.62 333.77,403.39 333.14,401.05 C332.84,399.93 331.36,400.17 329.9,400.73 C328.13,404.05 326.13,408.66 326.29,412.38 Z" id="Path" fill="#565387" fill-rule="nonzero"></path>
                <path d="M326.29,412.38 C326.48,416.98 330.07,422.69 332.21,425.71 C333.56,425.71 334.6,425.62 334.6,425.62 C334.6,425.62 333.77,403.39 333.14,401.05 C332.84,399.93 331.36,400.17 329.9,400.73 C328.13,404.05 326.13,408.66 326.29,412.38 Z" id="Path" fill="#000000" fill-rule="nonzero" opacity="0.1"></path>
                <path d="M323.27,412.99 C324.49,417.43 324.47,422.41 326.41,425.43 C326.698027,425.515806 326.992228,425.579326 327.29,425.62 C328.92647,425.753537 330.569741,425.783597 332.21,425.71 C333.56,425.71 334.6,425.62 334.6,425.62 C334.6,425.62 333.77,403.39 333.14,401.05 C332.84,399.93 331.36,400.17 329.9,400.73 C328.805538,401.17789 327.748808,401.712943 326.74,402.33 C326.74,402.33 321.72,407.3 323.27,412.99 Z" id="Path" fill="#000000" fill-rule="nonzero" opacity="0.05"></path>
                <path d="M262.45,367.92 C262.45,367.92 271.21,370.76 278.63,380.86 L262.45,367.92 Z" id="Path" fill="#000000" fill-rule="nonzero" opacity="0.1"></path>
                <g id="Group" opacity="0.1" transform="translate(283.000000, 252.000000)" fill="#000000" fill-rule="nonzero">
                    <path d="M50.61,6.3 C50.61,6.37 50.61,6.43 50.56,6.5 C50.4757054,6.76068819 50.3720847,7.01472617 50.25,7.26 C50.3463722,6.93163028 50.4666948,6.61076985 50.61,6.3 L50.61,6.3 Z" id="Path"></path>
                    <path d="M1.07,1.87 C1.21843447,1.23052524 1.44690281,0.612316795 1.75,0.03 C1.75,0.18 1.65,0.34 1.61,0.5 C1.2766866,2.52454945 1.41702347,4.5987969 2.02,6.56 C2.15258653,7.61578789 2.67730542,8.5831268 3.49,9.27 C4.85,10.14 6.96,9.38 8.07,10.55 C8.77,11.3 8.81,12.63 9.73,13.09 C10.072692,13.2398547 10.4529151,13.2817141 10.82,13.21 C13.25,12.87 14.65,10.13 16.99,9.37 C18.3511174,9.01948016 19.7912913,9.14655433 21.07,9.73 C21.594315,9.89027815 22.0646821,10.1911747 22.43,10.6 C23.21,11.6 22.66,13.09 23.02,14.31 C23.52,16.01 25.55,16.68 27.3,16.9 C29.05,17.12 31.03,17.25 32.2,18.58 C32.9840983,19.5768257 33.3010811,20.8629742 33.07,22.11 C32.9652597,22.5403858 32.9652597,22.9896142 33.07,23.42 C33.55,24.79 35.92,24.58 36.54,23.5 C37,22.71 36.86,22.06 37.93,21.84 C38.6941112,21.7843065 39.4601455,21.9182767 40.16,22.23 C42.0570317,22.8795119 44.0557865,23.181019 46.06,23.12 C47.712747,23.1453067 49.3318986,22.6522174 50.69,21.71 C51.2837478,21.2437031 51.7683924,20.6532558 52.11,19.98 C51.8012274,21.2046554 51.098502,22.2938797 50.11,23.08 C48.7518986,24.0222174 47.132747,24.5153067 45.48,24.49 C43.4757865,24.551019 41.4770317,24.2495119 39.58,23.6 C38.8801455,23.2882767 38.1141112,23.1543065 37.35,23.21 C36.28,23.43 36.42,24.08 35.97,24.87 C35.34,25.95 32.97,26.16 32.49,24.79 C32.3900826,24.3590491 32.3900826,23.9109509 32.49,23.48 C32.7210811,22.2329742 32.4040983,20.9468257 31.62,19.95 C30.45,18.62 28.48,18.5 26.72,18.27 C24.96,18.04 22.94,17.38 22.44,15.68 C22.08,14.46 22.63,12.97 21.85,11.97 C21.4874314,11.5626971 21.0207054,11.2619181 20.5,11.1 C19.2165106,10.5212966 17.774846,10.3944019 16.41,10.74 C14.08,11.5 12.67,14.24 10.24,14.58 C9.87291507,14.6517141 9.49269203,14.6098547 9.15,14.46 C8.23,14 8.15,12.67 7.49,11.92 C6.38,10.75 4.28,11.51 2.92,10.64 C2.10124364,9.95671549 1.57229958,8.98817604 1.44,7.93 C0.845292624,5.96658037 0.718577167,3.89118666 1.07,1.87 Z" id="Path"></path>
                </g>
                <path d="M335.03,326.99 C333.35,329.25 331.44,331.34 329.96,333.72 C328.352408,336.066271 327.571369,338.880827 327.74,341.72 C329.27,340.15 329.98,337.97 330.94,336 C332.58,332.66 335.02,329.83 337.09,326.77 C337.48,326.18 340,322.77 338.73,322.63 C337.67,322.48 335.6,326.22 335.03,326.99 Z" id="Path" fill="#000000" fill-rule="nonzero" opacity="0.1"></path>
                <path d="M344.03,540.96 C345.24,544.84 346.46,548.73 347.97,552.5 C350.69056,559.054192 354.113908,565.294007 358.18,571.11 C360.801458,574.939215 363.618528,578.630778 366.62,582.17 C370.38,586.6 374.62,591.06 375.9,596.72 C376.67,599.99 376.41,603.4 376.73,606.72 C377.05,610.04 378.14,613.6 380.85,615.6 C382.78,617.03 385.25,617.46 387.62,617.83 C389.32,618.1 391.44,618.19 392.32,616.72 C392.62774,616.119549 392.788807,615.454718 392.79,614.78 L393.2,609.89 C393.28,608.83 393.66,607.48 394.72,607.43 C395.78,607.38 396.31,608.79 397.21,609.43 C398.41,610.27 400.21,609.43 400.87,608.16 C401.418021,606.785059 401.453513,605.25893 400.97,603.86 C399.49718,598.230042 395.686734,593.498829 390.5,590.86 C388.719108,590.14192 387.011273,589.254516 385.4,588.21 C383.763479,586.786875 382.406923,585.070831 381.4,583.15 C372.12,567.87 362.79,552.51 356.24,535.88 C354.949454,532.908186 354.077797,529.77157 353.65,526.56 C353.33,523.29 353.84,520 354.05,516.72 C354.437605,510.827802 353.89085,504.911377 352.43,499.19 C352.110721,497.688025 351.54652,496.248807 350.76,494.93 C348.06,490.84 341.76,490.23 337.76,493.05 C334.782067,495.340879 332.90269,498.776729 332.58,502.52 C332.29,505.84 334.2,509.28 335.17,512.37 C338.11,521.91 341.063333,531.44 344.03,540.96 Z" id="Path" fill="#A1616A" fill-rule="nonzero"></path>
                <path d="M344.03,540.96 C345.24,544.84 346.46,548.73 347.97,552.5 C350.69056,559.054192 354.113908,565.294007 358.18,571.11 C360.801458,574.939215 363.618528,578.630778 366.62,582.17 C370.38,586.6 374.62,591.06 375.9,596.72 C376.67,599.99 376.41,603.4 376.73,606.72 C377.05,610.04 378.14,613.6 380.85,615.6 C382.78,617.03 385.25,617.46 387.62,617.83 C389.32,618.1 391.44,618.19 392.32,616.72 C392.62774,616.119549 392.788807,615.454718 392.79,614.78 L393.2,609.89 C393.28,608.83 393.66,607.48 394.72,607.43 C395.78,607.38 396.31,608.79 397.21,609.43 C398.41,610.27 400.21,609.43 400.87,608.16 C401.418021,606.785059 401.453513,605.25893 400.97,603.86 C399.49718,598.230042 395.686734,593.498829 390.5,590.86 C388.719108,590.14192 387.011273,589.254516 385.4,588.21 C383.763479,586.786875 382.406923,585.070831 381.4,583.15 C372.12,567.87 362.79,552.51 356.24,535.88 C354.949454,532.908186 354.077797,529.77157 353.65,526.56 C353.33,523.29 353.84,520 354.05,516.72 C354.437605,510.827802 353.89085,504.911377 352.43,499.19 C352.110721,497.688025 351.54652,496.248807 350.76,494.93 C348.06,490.84 341.76,490.23 337.76,493.05 C334.782067,495.340879 332.90269,498.776729 332.58,502.52 C332.29,505.84 334.2,509.28 335.17,512.37 C338.11,521.91 341.063333,531.44 344.03,540.96 Z" id="Path" fill="#000000" fill-rule="nonzero" opacity="0.05"></path>
                <path d="M285.73,704.34 C287.539301,704.969287 289.462979,705.20122 291.37,705.02 C291.51,703.46 293.61,703.11 295.17,703.19 C295.924509,703.1651 296.672464,703.33744 297.34,703.69 C297.73,703.94 298.03,704.3 298.41,704.56 C299.087562,704.931435 299.847311,705.127388 300.62,705.13 L308.74,705.81 C312.36,706.12 316.13,706.4 319.52,705.11 C320.195361,704.89596 320.795559,704.493516 321.25,703.95 C322.17,702.63 321.25,700.74 319.98,699.78 C318.71,698.82 317.07,698.39 315.79,697.41 C312.97,695.26 312.58,691.24 311.09,688.02 C310.030932,685.989816 308.724304,684.098733 307.2,682.39 C306.095526,680.922567 304.808485,679.601922 303.37,678.46 C300.11,676.11 296.37,676.16 292.54,675.82 C289.84,675.58 287.3,675.42 285.36,677.82 C282.96,680.82 283.92,686.82 284.07,690.32 C284.257293,695.029439 284.812316,699.717041 285.73,704.34 L285.73,704.34 Z" id="Path" fill="#514E7F" fill-rule="nonzero"></path>
                <path d="M285.73,704.34 C287.539301,704.969287 289.462979,705.20122 291.37,705.02 C291.51,703.46 293.61,703.11 295.17,703.19 C295.924509,703.1651 296.672464,703.33744 297.34,703.69 C297.73,703.94 298.03,704.3 298.41,704.56 C299.087562,704.931435 299.847311,705.127388 300.62,705.13 L308.74,705.81 C312.36,706.12 316.13,706.4 319.52,705.11 C320.195361,704.89596 320.795559,704.493516 321.25,703.95 C322.17,702.63 321.25,700.74 319.98,699.78 C318.71,698.82 317.07,698.39 315.79,697.41 C312.97,695.26 312.58,691.24 311.09,688.02 C310.030932,685.989816 308.724304,684.098733 307.2,682.39 C306.095526,680.922567 304.808485,679.601922 303.37,678.46 C300.11,676.11 296.37,676.16 292.54,675.82 C289.84,675.58 287.3,675.42 285.36,677.82 C282.96,680.82 283.92,686.82 284.07,690.32 C284.257293,695.029439 284.812316,699.717041 285.73,704.34 L285.73,704.34 Z" id="Path" fill="#000000" fill-rule="nonzero" opacity="0.05"></path>
                <path d="M289.01,546.39 C286.53,547.19 285.45,550.28 285.91,552.85 C286.37,555.42 287.91,557.64 289.18,559.92 C292.8,566.39 294.36,573.79 297.4,580.54 C299.67,585.54 302.74,590.24 304.98,595.3 C307.22,600.36 308.61,606.07 307.25,611.44 C306.59,614.05 305.31,616.44 304.46,619.01 C303.618634,621.795495 303.069016,624.660885 302.82,627.56 C301.718792,637.407957 301.521301,647.33604 302.23,657.22 C302.23612,658.424847 302.487919,659.615785 302.97,660.72 C303.48,661.72 304.36,662.72 303.97,663.72 C303.8,664.13 303.43,664.43 303.25,664.83 C302.73,665.95 303.77,667.14 304.72,667.94 C304.377215,668.547346 303.803984,668.990789 303.13,669.17 C304.52914,670.060869 305.179236,671.763307 304.73,673.36 C303.89,673.49 303.84,674.78 304.37,675.46 C304.9,676.14 305.74,676.56 306.12,677.33 C306.584463,678.632159 305.952949,680.070607 304.68,680.61 C303.430716,681.090878 302.067911,681.195175 300.76,680.91 C298.542508,680.601252 296.352516,680.119788 294.21,679.47 C291.894481,679.015243 290.266112,676.926499 290.39,674.57 C289.894796,670.499965 289.744261,666.395375 289.94,662.3 C290.29,642.46 289.94,622.6 289.08,602.77 C288.73,594.77 286.33,587.02 283.24,579.66 C281.531888,575.898831 279.632747,572.22738 277.55,568.66 C273.09,560.5 269.15,551.46 270.17,542.21 C270.28,541.21 270.64,540.02 271.63,539.86 C272.016966,539.818409 272.407914,539.884143 272.76,540.05 C274.814293,541.009357 276.802069,542.10514 278.71,543.33 C281.845185,545.168331 285.379656,546.218378 289.01,546.39 Z" id="Path" fill="#464353" fill-rule="nonzero"></path>
                <path d="M289.01,546.39 C286.53,547.19 285.45,550.28 285.91,552.85 C286.37,555.42 287.91,557.64 289.18,559.92 C292.8,566.39 294.36,573.79 297.4,580.54 C299.67,585.54 302.74,590.24 304.98,595.3 C307.22,600.36 308.61,606.07 307.25,611.44 C306.59,614.05 305.31,616.44 304.46,619.01 C303.618634,621.795495 303.069016,624.660885 302.82,627.56 C301.718792,637.407957 301.521301,647.33604 302.23,657.22 C302.23612,658.424847 302.487919,659.615785 302.97,660.72 C303.48,661.72 304.36,662.72 303.97,663.72 C303.8,664.13 303.43,664.43 303.25,664.83 C302.73,665.95 303.77,667.14 304.72,667.94 C304.377215,668.547346 303.803984,668.990789 303.13,669.17 C304.52914,670.060869 305.179236,671.763307 304.73,673.36 C303.89,673.49 303.84,674.78 304.37,675.46 C304.9,676.14 305.74,676.56 306.12,677.33 C306.584463,678.632159 305.952949,680.070607 304.68,680.61 C303.430716,681.090878 302.067911,681.195175 300.76,680.91 C298.542508,680.601252 296.352516,680.119788 294.21,679.47 C291.894481,679.015243 290.266112,676.926499 290.39,674.57 C289.894796,670.499965 289.744261,666.395375 289.94,662.3 C290.29,642.46 289.94,622.6 289.08,602.77 C288.73,594.77 286.33,587.02 283.24,579.66 C281.531888,575.898831 279.632747,572.22738 277.55,568.66 C273.09,560.5 269.15,551.46 270.17,542.21 C270.28,541.21 270.64,540.02 271.63,539.86 C272.016966,539.818409 272.407914,539.884143 272.76,540.05 C274.814293,541.009357 276.802069,542.10514 278.71,543.33 C281.845185,545.168331 285.379656,546.218378 289.01,546.39 Z" id="Path" fill="#000000" fill-rule="nonzero" opacity="0.05"></path>
                <path d="M255.48,522.27 C254.186962,521.439714 252.69548,520.970174 251.16,520.91 C249.38,521 247.86,522.17 246.47,523.29 C244.822972,524.554016 243.259689,525.923559 241.79,527.39 C235.5921,533.996432 233.463699,543.44408 236.23,552.07 C237.7,556.48 240.39,560.37 243.05,564.18 L248.45,571.94 C256.69,583.77 264.93,595.6 273.56,607.15 C273.563877,607.732684 273.943865,608.246073 274.5,608.42 C274.81,608.5 275.2,608.49 275.39,608.75 C275.47784,608.91206 275.516093,609.096369 275.5,609.28 C275.480749,610.134293 275.318503,610.979323 275.02,611.78 C274.879867,612.043942 274.844168,612.350946 274.92,612.64 C275.2,613.29 276.38,612.92 276.76,613.53 C277.01,613.93 276.7,614.45 276.37,614.79 C276.04,615.13 275.63,615.51 275.69,615.98 C275.75,616.45 276.57,616.98 276.54,617.56 C276.54,617.9 276.24,618.16 276.03,618.43 C275.423503,619.317948 275.537045,620.512247 276.3,621.27 C276.87,626.91 273.8,632.27 273.19,637.89 C272.19,646.77 276.24,655.44 276.73,664.35 C276.700632,665.352594 276.891801,666.349405 277.29,667.27 C278.12,668.81 280.29,669.74 280.18,671.49 C280.023055,672.209198 279.819287,672.917373 279.57,673.61 C279.4,674.61 279.88,675.61 279.9,676.61 C279.92,677.61 279.03,678.84 278.09,678.44 C278.796667,680.8 279.426667,683.18 279.98,685.58 L298.88,687.14 C299.08382,685.441281 299.02649,683.721375 298.71,682.04 C298.32,680.21 297.5,678.51 297.07,676.7 C296.503875,674.895764 296.775384,672.932825 297.81,671.35 C296.792935,671.362074 295.914862,670.640196 295.73,669.64 C295.571773,668.664819 295.588705,667.669237 295.78,666.7 C296.28,661.77 294.21,656.91 294.27,651.96 C294.33,648.06 295.7,644.31 296.39,640.48 C297.87,632.28 296.33,623.39 299.98,615.9 C302.19,611.39 305.25,606.39 302.77,602.02 C301.55,599.86 299.39,598.38 297.98,596.34 C296.830577,594.411943 295.968187,592.32671 295.42,590.15 C292.51,581.15 287.8,572.79 283.67,564.23 C282.523733,562.084339 281.672698,559.793609 281.14,557.42 C280.848235,555.336855 280.741152,553.232 280.82,551.13 C280.819976,547.356131 280.589547,543.585784 280.13,539.84 C280.036696,538.199009 279.567997,536.601327 278.76,535.17 C277.943979,534.087204 276.92504,533.173556 275.76,532.48 C269.56,528.23 262.18,525.8 255.48,522.27 Z" id="Path" fill="#464353" fill-rule="nonzero"></path>
                <path d="M278.13,711.27 C279.944693,711.890674 281.870474,712.119041 283.78,711.94 C283.92,710.38 286.01,710.03 287.57,710.11 C288.324509,710.0851 289.072464,710.25744 289.74,710.61 C290.13,710.86 290.43,711.23 290.82,711.48 C291.495779,711.85592 292.256703,712.052176 293.03,712.05 L301.14,712.73 C304.77,713.04 308.53,713.33 311.93,712.03 C312.604226,711.81942 313.202117,711.416192 313.65,710.87 C314.57,709.55 313.65,707.67 312.38,706.71 C311.11,705.75 309.47,705.31 308.2,704.33 C305.37,702.18 304.99,698.17 303.49,694.95 C302.440552,692.913381 301.136796,691.01823 299.61,689.31 C298.501858,687.845395 297.211448,686.528101 295.77,685.39 C292.52,683.03 288.77,683.08 284.95,682.74 C282.24,682.5 279.7,682.35 277.77,684.74 C275.37,687.74 276.33,693.74 276.47,697.25 C276.657861,701.959394 277.212879,706.646952 278.13,711.27 Z" id="Path" fill="#514E7F" fill-rule="nonzero"></path>
                <circle id="Oval" fill="#A1616A" fill-rule="nonzero" cx="361.9" cy="470.82" r="18.72"></circle>
                <path d="M344.24,476.38 C341.56,478.69 337.71,478.86 334.19,479.22 C326.663069,479.993344 319.336509,482.113745 312.56,485.48 C311.622101,485.88414 310.772696,486.468531 310.06,487.2 C309.451694,487.99334 309.018812,488.906825 308.79,489.88 C308.146047,491.986041 307.905169,494.194659 308.08,496.39 C308.325241,498.519247 308.937636,500.589886 309.89,502.51 C312.488058,507.888558 316.497243,512.461103 321.49,515.74 C322.369826,516.395323 323.368191,516.874131 324.43,517.15 C326.89,517.66 329.27,516.24 331.7,515.6 C333.910341,515.023441 336.240038,515.096353 338.41,515.81 C340.41,516.49 342.6,517.73 344.58,516.9 C345.847167,516.191329 346.832208,515.068595 347.37,513.72 C349.282424,510.106188 350.988493,506.38689 352.48,502.58 C353.015814,501.093672 353.633424,499.638115 354.33,498.22 C356.5,494.09 360.25,490.9 362.12,486.61 C362.504451,485.947274 362.570545,485.146808 362.3,484.43 C361.953386,483.951789 361.473329,483.586528 360.92,483.38 C358.15487,481.796911 355.635084,479.819485 353.44,477.51 C352.21,476.33 349.95,473.14 348.18,472.86 C346.19,472.52 345.59,475.22 344.24,476.38 Z" id="Path" fill="#A1616A" fill-rule="nonzero"></path>
                <path d="M344.68,514.42 C342.51,515.42 339.95,514.99 337.6,514.5 C331.54,513.23 325.41,511.95 319.8,509.33 C318.047337,508.659233 316.528566,507.491482 315.43,505.97 C314.747586,504.668827 314.332757,503.244128 314.21,501.78 L313.21,494.78 C312.85,492.35 313.47,490.1 313.53,487.64 C313.607097,487.089235 313.459333,486.530613 313.12,486.09 C312.77772,485.802435 312.335445,485.662201 311.89,485.7 C309.08,485.75 307.38,488.7 305.41,490.7 C304.271418,491.854396 302.910699,492.766077 301.41,493.38 C299.61,494.12 297.41,494.64 296.66,496.44 C296.36,497.19 296.4,498.04 296.08,498.79 C294.82,501.79 289.45,500.79 288.08,503.79 C287.69,504.63 287.72,505.68 287.08,506.34 C286.44,507 285.24,506.99 284.25,507.15 C280.34,507.79 278.45,512.3 275.11,514.43 C272.3,516.23 268.68,516.19 265.65,517.59 C263.97,518.37 262.48,519.59 260.7,520.1 C258.92,520.61 256.91,520.34 255,520.39 C254.58831,520.351187 254.179005,520.485207 253.87,520.76 C253.629846,521.126224 253.560519,521.578671 253.68,522 C255.564337,534.030252 263.657905,544.172873 274.97,548.68 C275.615434,548.885276 276.228276,549.181596 276.79,549.56 C278.49,550.83 278.79,553.56 280.72,554.46 C282.140298,554.959825 283.720951,554.619733 284.81,553.58 C285.874772,552.554772 286.876599,551.466121 287.81,550.32 C289.572274,548.479336 291.885174,547.261467 294.4,546.85 C296.72,546.48 299.31,546.75 301.19,545.32 C301.958874,544.614107 302.67418,543.852005 303.33,543.04 C304.722883,541.74055 306.376086,540.752037 308.18,540.14 C313.109088,538.192569 318.318538,537.048043 323.61,536.75 C328.54,536.48 333.61,536.93 338.27,535.33 C339.479966,534.95476 340.595148,534.323847 341.54,533.48 C342.541971,532.396341 343.287066,531.100969 343.72,529.69 C345.401159,524.777709 345.732699,519.504164 344.68,514.42 Z" id="Path" fill="#6C63FF" fill-rule="nonzero"></path>
                <path d="M320.55,486.83 C321.93,486.7 323.32,486.83 324.71,486.83 C326.34,486.83 327.95,486.43 329.58,486.42 C334.877842,486.506421 339.504336,490.026932 341,495.11 C341.137313,495.505503 341.161555,495.931472 341.07,496.34 C340.958747,496.756931 340.558693,497.029308 340.13,496.98 C339.588862,495.501076 338.880963,494.088632 338.02,492.77 C336.470073,490.654219 334.260986,489.113486 331.74,488.39 C329.226524,487.677855 326.578462,487.581811 324.02,488.11 C322.95,488.31 321.91,488.59 320.87,488.88 L315.87,490.26 C314.95,490.51 314.02,490.76 313.13,491.09 C312.44,491.35 311.26,492.3 310.58,492.34 C309.66,492.34 310.4,491.54 310.81,491 C311.626468,489.886409 312.769339,489.054594 314.08,488.62 C316.158071,487.768929 318.329993,487.168041 320.55,486.83 Z" id="Path" fill="#6C63FF" fill-rule="nonzero"></path>
                <path d="M333.17,543.06 C334.38,546.94 335.59,550.83 337.11,554.6 C339.826632,561.156077 343.250208,567.396307 347.32,573.21 C349.941458,577.039215 352.758528,580.730778 355.76,584.27 C359.51,588.7 363.7,593.16 365.04,598.81 C365.81,602.09 365.55,605.5 365.87,608.81 C366.19,612.12 367.28,615.69 369.98,617.69 C371.92,619.11 374.39,619.54 376.76,619.92 C378.45,620.19 380.57,620.28 381.46,618.81 C381.761883,618.207389 381.922611,617.543958 381.93,616.87 L382.33,611.98 C382.42,610.92 382.8,609.57 383.85,609.52 C384.9,609.47 385.45,610.88 386.35,611.52 C387.55,612.36 389.35,611.52 390.01,610.25 C390.55362,608.874165 390.589075,607.349619 390.11,605.95 C388.630175,600.323576 384.821788,595.59492 379.64,592.95 C377.856983,592.229628 376.146042,591.342349 374.53,590.3 C372.890432,588.875882 371.533489,587.155956 370.53,585.23 C361.24,569.96 351.91,554.6 345.37,537.96 C344.080049,534.99074 343.205164,531.857976 342.77,528.65 C342.46,525.38 342.96,522.09 343.18,518.81 C343.567605,512.917802 343.02085,507.001377 341.56,501.28 C341.241334,499.776293 340.673507,498.336445 339.88,497.02 C337.19,492.92 330.88,492.32 326.88,495.14 C323.899268,497.429808 322.016363,500.865474 321.69,504.61 C321.4,507.93 323.32,511.37 324.28,514.46 C327.233333,524.006667 330.196667,533.54 333.17,543.06 Z" id="Path" fill="#A1616A" fill-rule="nonzero"></path>
                <path d="M389.13,457.58 C389.28,456.02 387.88,454.58 386.29,453.58 C384.615357,452.721744 383.007505,451.738982 381.48,450.64 C380.06,449.41 379.28,447.81 377.86,446.58 C376.245706,445.350882 374.413505,444.438175 372.46,443.89 C368.304789,442.433222 363.942568,441.653289 359.54,441.58 C355.09,441.58 350.54,442.58 347.19,444.85 C346.363458,445.369732 345.64941,446.049779 345.09,446.85 C344.561779,447.81 344.222329,448.862293 344.09,449.95 C343.291763,453.305196 342.211247,456.586886 340.86,459.76 C339.47,463.29 337.99,466.95 334.72,469.68 C331.22,472.59 325.87,474.27 323.56,477.79 C323.042049,478.424151 322.853082,479.26524 323.05,480.06 C323.38,480.95 324.44,481.56 325.42,482.12 C331.1,485.38 336,489.61 338.52,494.66 C341.04,499.71 340.97,505.66 337.38,510.31 C336.06,512.03 334.24,514.07 335.53,515.8 C337.53,518.43 344.22,516.92 345.78,519.7 C346.27,520.59 345.98,521.6 345.98,522.57 C345.98,525.49 348.79,528.08 352.2,529.43 C355.61,530.78 359.56,531.1 363.4,531.27 C364.419455,528.978624 364.519693,526.383177 363.68,524.02 C363.424246,523.510132 363.323429,522.936519 363.39,522.37 C363.676236,521.740705 364.120687,521.19634 364.68,520.79 C368.78,516.91 367.91,511.21 365.45,506.6 C362.99,501.99 359.15,497.78 357.72,492.93 C357.01,490.52 357.01,487.81 358.92,485.81 C360.016305,484.848069 361.19784,483.987858 362.45,483.24 C364.686877,481.721655 366.409629,479.559496 367.39,477.04 C368.54,473.85 368.39,470.04 371.73,467.89 C374.94,465.89 379.45,466.47 383,465.1 C385.73,464.02 388.91,459.87 389.13,457.58 Z" id="Path" fill="#464353" fill-rule="nonzero"></path>
                <path d="M583.03,614.27 C567.78,607.96 563.3,603.4 563.3,594.27 C563.3,587.27 566.38,579.19 579.88,579.19 C587.342903,579.080368 594.67341,581.166851 600.96,585.19 L605.35,573.58 C600.26,570.58 593.08,567.79 582.56,567.44 L582.56,550.44 L573.69,550.44 L573.69,568.14 C557.56,570.77 548.22,581.81 548.22,596.36 C548.22,611.61 557.22,619.68 575.14,626.69 C588.12,631.98 594.91,637.94 594.91,647.58 C594.91,657.58 586.5,664.76 574.05,664.76 C564.24,664.76 553.12,661.43 546.81,657.22 L542.6,668.96 C548.74,673.35 559.26,676.5 569.42,676.68 L569.42,694.38 L584.51,694.38 L584.51,676.15 C602.51,673.15 612.2,660.15 612.2,646.35 C612.2,630.75 601.09,621.63 583.03,614.27 Z" id="Path" fill="url(#linearGradient-2)" fill-rule="nonzero"></path>
                <path d="M569.46,690.38 L569.46,672.68 C559.3,672.5 548.78,669.35 542.64,664.96 L546.85,653.22 C553.16,657.43 564.28,660.76 574.09,660.76 C586.54,660.76 594.91,653.58 594.91,643.58 C594.91,633.94 588.08,627.98 575.1,622.72 C557.22,615.72 548.18,607.64 548.18,592.39 C548.18,577.84 557.52,566.8 573.65,564.17 L573.65,546.47 L582.52,546.47 L582.52,563.47 C593.04,563.82 600.22,566.62 605.31,569.61 L600.92,581.17 C594.63341,577.146851 587.302903,575.060368 579.84,575.17 C566.34,575.17 563.26,583.24 563.26,590.25 C563.26,599.36 567.74,603.92 582.99,610.25 C601.05,617.61 612.16,626.73 612.16,642.33 C612.16,656.18 602.52,669.15 584.47,672.13 L584.47,690.38 L569.46,690.38 Z" id="Path" fill="#6C63FF" fill-rule="nonzero"></path>
            </g>
            <g id="icon-/-font-awesome-/-brands-/-facebook-square" transform="translate(609.000000, 236.000000)" fill="#0091FF">
                <path d="M82.4999998,13.7499998 L82.4999998,74.2500002 C82.4999998,78.8046877 78.8046877,82.4999998 74.2500002,82.4999998 L59.5890626,82.4999998 L59.5890626,52.0437501 L70.0046877,52.0437501 L71.4999998,40.425 L59.5890626,40.425 L59.5890626,32.9999998 C59.5890626,29.6312499 60.5171876,27.3453124 65.3468751,27.3453124 L71.4999998,27.3453124 L71.4999998,16.9640623 C70.4343752,16.8265623 66.7906251,16.4999998 62.5281251,16.4999998 C53.6593751,16.4999998 47.575,21.9140624 47.575,31.8656249 L47.575,40.4421875 L37.125,40.4421875 L37.125,52.0609376 L47.5921875,52.0609376 L47.5921875,82.4999998 L13.7499998,82.4999998 C9.19531228,82.4999998 5.49999976,78.8046877 5.49999976,74.2500002 L5.49999976,13.7499998 C5.49999976,9.19531228 9.19531228,5.49999976 13.7499998,5.49999976 L74.2500002,5.49999976 C78.8046877,5.49999976 82.4999998,9.19531228 82.4999998,13.7499998 Z" id="facebook-square"></path>
            </g>
            <g id="icon-/-font-awesome-/-brands-/-google" transform="translate(475.000000, 244.000000)" fill="#FF6868">
                <path d="M70.3125002,36.815625 C70.3125002,56.7140626 56.6859376,70.8750002 36.5625,70.8750002 C17.2687499,70.8750002 1.68749979,55.2937501 1.68749979,36 C1.68749979,16.7062499 17.2687499,1.12499978 36.5625,1.12499978 C45.9562501,1.12499978 53.8593751,4.5703123 59.9484376,10.2515623 L50.4562501,19.3781249 C38.0390625,7.39687482 14.9484374,16.3968749 14.9484374,36 C14.9484374,48.1640626 24.6656249,58.0218751 36.5625,58.0218751 C50.3718751,58.0218751 55.5468751,48.1218751 56.3625001,42.9890625 L36.5625,42.9890625 L36.5625,30.99375 L69.7640627,30.99375 C70.0875002,32.7796875 70.3125002,34.4953125 70.3125002,36.815625 Z" id="google"></path>
            </g>
        </g>
    </g>
</svg>