<?xml version="1.0" encoding="UTF-8"?>
<svg width="20px" height="20px" viewBox="0 0 20 20" version="1.1" xmlns="http://www.w3.org/2000/svg" xmlns:xlink="http://www.w3.org/1999/xlink">
    <!-- Generator: Sketch 56.3 (81716) - https://sketch.com -->
    <title>settings_outlined</title>
    <desc>Created with Sketch.</desc>
    <g id="Icons" stroke="none" stroke-width="1" fill="none" fill-rule="evenodd">
        <g id="The-Icon-of---UI" transform="translate(-976.000000, -1094.000000)" fill="#000000" fill-rule="nonzero">
            <g id="ico-/-24-/-ui-/-settings_outlined" transform="translate(974.000000, 1092.000000)">
                <path d="M20.21,14.0741308 C19.7249506,13.6706815 19.4581263,13.0617022 19.49,12.4308581 C19.49,12.2905787 19.49,12.1402794 19.49,12 C19.49,11.8597206 19.49,11.7094213 19.49,11.5691419 C19.4581263,10.9382978 19.7249506,10.3293185 20.21,9.92586916 L21.01,9.26455208 C21.3861603,8.95335884 21.4833504,8.41562969 21.24,7.9920177 L20.08,5.98802655 C19.9024477,5.67986828 19.5751111,5.4891765 19.22,5.48702876 C19.0996658,5.48501555 18.9803049,5.50893537 18.87,5.55716845 L17.87,5.91788686 C17.6470093,6.00534865 17.4094619,6.04955262 17.17,6.04814628 C16.7867769,6.04715114 16.4119072,5.93585699 16.09,5.7275077 C15.8549205,5.56477789 15.6074994,5.42071929 15.35,5.2966496 C14.7872988,5.00750253 14.3942248,4.46873396 14.29,3.84375602 L14.12,2.84176044 C14.0407716,2.35172669 13.6153928,1.99369542 13.12,2 L10.82,2 C10.3246072,1.99369542 9.89922838,2.35172669 9.82,2.84176044 L9.65,3.84375602 C9.55448664,4.4608397 9.17734591,4.99804102 8.63,5.2966496 C8.37250057,5.42071929 8.12507951,5.56477789 7.89,5.7275077 C7.56809279,5.93585699 7.19322312,6.04715114 6.81,6.04814628 C6.57053806,6.04955262 6.33299073,6.00534865 6.11,5.91788686 L5.11,5.55716845 C4.99969509,5.50893537 4.88033416,5.48501555 4.76,5.48702876 C4.40488894,5.4891765 4.0775523,5.67986828 3.9,5.98802655 L2.76,7.9920177 C2.51892514,8.417972 2.62042003,8.95612094 3,9.26455208 L3.8,9.92586916 C4.28504942,10.3293185 4.55187369,10.9382978 4.52,11.5691419 C4.52,11.7094213 4.52,11.8597206 4.52,12 C4.52,12.1402794 4.52,12.2905787 4.52,12.4308581 C4.55187369,13.0617022 4.28504942,13.6706815 3.8,14.0741308 L3,14.7354479 C2.62042003,15.0438791 2.51892514,15.582028 2.76,16.0079823 L3.92,18.0119735 C4.0975523,18.3201317 4.42488894,18.5108235 4.78,18.5129712 C4.90033416,18.5149845 5.01969509,18.4910646 5.13,18.4428315 L6.13,18.0821131 C6.35299073,17.9946514 6.59053806,17.9504474 6.83,17.9518537 C7.21322312,17.9528489 7.58809279,18.064143 7.91,18.2724923 C8.14507951,18.4352221 8.39250057,18.5792807 8.65,18.7033504 C9.21270119,18.9924975 9.60577518,19.531266 9.71,20.156244 L9.88,21.1582396 C9.95922838,21.6482733 10.3846072,22.0063046 10.88,22 L13.18,22 C13.6753928,22.0063046 14.1007716,21.6482733 14.18,21.1582396 L14.35,20.156244 C14.4542248,19.531266 14.8472988,18.9924975 15.41,18.7033504 C15.6674994,18.5792807 15.9149205,18.4352221 16.15,18.2724923 C16.4719072,18.064143 16.8467769,17.9528489 17.23,17.9518537 C17.4694619,17.9504474 17.7070093,17.9946514 17.93,18.0821131 L18.93,18.4428315 C19.0403049,18.4910646 19.1596658,18.5149845 19.28,18.5129712 C19.6351111,18.5108235 19.9624477,18.3201317 20.14,18.0119735 L21.3,16.0079823 C21.5280497,15.5678618 21.4004937,15.0267973 21,14.7354479 L20.21,14.0741308 Z M12,17.5109757 C8.96243388,17.5109757 6.5,15.0436278 6.5,12 C6.5,8.95637218 8.96243388,6.48902434 12,6.48902434 C15.0375661,6.48902434 17.5,8.95637218 17.5,12 C17.5,13.4616016 16.9205374,14.8633398 15.8890873,15.8968483 C14.8576372,16.9303567 13.4586907,17.5109757 12,17.5109757 Z M12,9.99600885 C10.8954305,9.99600885 10,10.8932262 10,12 C10,13.1067738 10.8954305,14.0039912 12,14.0039912 C13.1045695,14.0039912 14,13.1067738 14,12 C14,10.8932262 13.1045695,9.99600885 12,9.99600885 Z" id="Icon-color"></path>
            </g>
        </g>
    </g>
</svg>