<?xml version="1.0" encoding="UTF-8"?>
<svg width="20px" height="18px" viewBox="0 0 20 18" version="1.1" xmlns="http://www.w3.org/2000/svg" xmlns:xlink="http://www.w3.org/1999/xlink">
    <!-- Generator: Sketch 56.3 (81716) - https://sketch.com -->
    <title>thumbs_up</title>
    <desc>Created with Sketch.</desc>
    <g id="Icons" stroke="none" stroke-width="1" fill="none" fill-rule="evenodd">
        <g id="The-Icon-of---Gestures-&amp;-emotions" transform="translate(-480.000000, -723.000000)" fill="#000000" fill-rule="nonzero">
            <g id="ico-/-24-/-gestures-&amp;-emotions-/-thumbs_up" transform="translate(478.000000, 720.000000)">
                <path d="M5,19.5 C5,19.7761424 4.77614237,20 4.5,20 L2.5,20 C2.22385763,20 2,19.7761424 2,19.5 L2,10.5 C2,10.2238576 2.22385763,10 2.5,10 L4.5,10 C4.77614237,10 5,10.2238576 5,10.5 L5,19.5 Z M20,10 L15,10 L16.55,6.89 C16.8648893,6.2714541 17.0196096,5.58380815 17,4.89 L17,4.5 C17,3.67157288 16.3284271,3 15.5,3 L15.36,3 C15.1468825,3.00158284 14.9581936,3.13808118 14.89,3.34 L14.29,5.12 C14.1038451,5.67546613 13.6835109,6.12138587 13.14,6.34 L12.71,6.51 C11.9250639,6.83173834 11.2606243,7.39126644 10.81,8.11 L9.59,10.11 C9.22376909,10.6959709 8.58100294,11.0513828 7.89,11.05 L7,11.05 L7,19.05 L7.59,19.05 C8.4870222,19.0373236 9.3529063,19.3786472 10,20 L10,20 C10.6389946,20.6396493 11.5058623,20.9993455 12.41,21 L18.65,21 C19.4659584,20.9967076 20.1980996,20.4980601 20.5,19.74 L21.57,17.07 C21.852585,16.360407 21.9984799,15.6037894 22,14.84 L22,12 C22,10.8954305 21.1045695,10 20,10 Z" id="Icon-color"></path>
            </g>
        </g>
    </g>
</svg>